<svg width="182" height="184" viewBox="0 0 182 184" fill="none" xmlns="http://www.w3.org/2000/svg">
<path d="M173.97 91.7684C179.53 88.7084 182.8 82.3584 181.64 75.7584C180.5 69.2684 175.4 64.4584 169.27 63.3784C173.09 58.6184 173.83 51.8184 170.59 46.2184C167.27 40.4784 160.79 37.7184 154.62 38.8584C156.9 32.9484 155.33 25.9984 150.2 21.6984C145.12 17.4384 138.1 17.0684 132.69 20.2384C132.81 13.9084 128.95 7.91844 122.66 5.62844C116.25 3.29844 109.29 5.52843 105.34 10.6684C103.34 4.56843 97.6099 0.148438 90.8399 0.148438C84.2099 0.148438 78.5799 4.36844 76.4699 10.2684C72.4699 5.44844 65.7299 3.39843 59.5099 5.66843C53.2799 7.93843 49.4299 13.8384 49.4699 20.1184C44.0599 16.9484 37.0299 17.3184 31.9499 21.5784C26.8699 25.8384 25.2799 32.7084 27.4799 38.5884C21.3099 37.4484 14.8199 40.2084 11.4999 45.9484C8.18988 51.6884 9.03988 58.6784 13.0999 63.4484C6.90988 64.4884 1.76988 69.3084 0.619881 75.8384C-0.530119 82.3684 2.64988 88.6484 8.09988 91.7484C2.65988 94.8484 -0.530119 101.128 0.619881 107.658C1.76988 114.188 6.91988 119.008 13.0999 120.048C9.03988 124.828 8.17988 131.808 11.4999 137.548C14.8199 143.298 21.2999 146.048 27.4699 144.908C25.2799 150.788 26.8599 157.658 31.9399 161.918C37.0199 166.178 44.0499 166.548 49.4599 163.378C49.4099 169.648 53.2699 175.558 59.4999 177.818C65.7299 180.088 72.4699 178.048 76.4599 173.218C78.5699 179.118 84.1999 183.338 90.8299 183.338C97.4599 183.338 103.09 179.118 105.2 173.218C109.2 178.038 115.94 180.078 122.16 177.818C128.31 175.578 132.14 169.808 132.2 163.628C137.65 167.038 144.89 166.728 150.08 162.378C155.22 158.068 156.78 151.098 154.49 145.178C160.72 146.418 167.32 143.658 170.67 137.858C174.02 132.058 173.11 124.978 168.94 120.198C175.22 119.228 180.47 114.378 181.63 107.778C182.8 101.178 179.53 94.8284 173.97 91.7684Z" fill="#E1DDF7"/>
<path d="M174.27 91.9414H7.78999C2.53999 95.0814 -0.510008 101.251 0.619992 107.651C1.77999 114.181 6.91999 119.001 13.11 120.041C9.04999 124.821 8.19999 131.811 11.51 137.551C14.83 143.291 21.31 146.051 27.48 144.911C25.29 150.781 26.87 157.661 31.96 161.921C37.04 166.171 44.07 166.551 49.48 163.381C49.43 169.651 53.28 175.551 59.52 177.821C65.74 180.091 72.49 178.051 76.48 173.221C78.59 179.121 84.22 183.351 90.84 183.351C97.47 183.351 103.1 179.121 105.21 173.221C109.21 178.051 115.95 180.081 122.17 177.831C128.31 175.591 132.15 169.811 132.21 163.631C137.67 167.031 144.89 166.741 150.09 162.381C155.22 158.071 156.8 151.101 154.49 145.191C160.72 146.421 167.32 143.671 170.67 137.861C174.03 132.051 173.12 124.981 168.94 120.191C175.22 119.231 180.46 114.371 181.63 107.771C182.78 101.301 179.64 95.0614 174.27 91.9414Z" fill="#E0E77E"/>
<path d="M90.8698 175.5C85.2998 175.5 80.2198 172.51 77.4598 167.83C74.6898 170.12 71.2098 171.39 67.5498 171.39C65.7398 171.39 63.9498 171.07 62.2298 170.45C56.9898 168.54 53.2298 163.99 52.2498 158.64C50.5798 159.23 48.8098 159.54 47.0198 159.54C43.3798 159.54 39.8398 158.25 37.0398 155.91C32.7698 152.33 30.7998 146.76 31.7098 141.39C26.2098 141.35 21.0898 138.38 18.3398 133.62C15.5598 128.8 15.6098 122.9 18.2898 118.17C13.1898 116.27 9.35978 111.78 8.38978 106.29C7.41978 100.8 9.47978 95.28 13.6198 91.75C9.48978 88.22 7.42978 82.69 8.38978 77.2C9.35978 71.71 13.1898 67.22 18.2898 65.32C15.6098 60.59 15.5598 54.69 18.3398 49.87C21.0898 45.11 26.1998 42.14 31.7098 42.1C30.7998 36.73 32.7698 31.17 37.0398 27.59C39.8298 25.25 43.3798 23.96 47.0198 23.96C48.8098 23.96 50.5798 24.27 52.2498 24.86C53.2398 19.51 56.9898 14.95 62.2298 13.05C63.9498 12.42 65.7398 12.11 67.5498 12.11C71.2098 12.11 74.6998 13.38 77.4598 15.67C80.2198 10.99 85.3098 8 90.8698 8C96.5698 8 101.69 11.07 104.41 15.89C107.22 13.46 110.86 12.06 114.63 12.06C116.44 12.06 118.23 12.38 119.95 13C125.25 14.93 129.02 19.54 129.96 24.95C131.62 24.37 133.38 24.06 135.16 24.06C138.8 24.06 142.34 25.35 145.14 27.69C149.46 31.32 151.42 36.93 150.45 42.34C155.94 42.39 161.03 45.36 163.78 50.11C166.53 54.87 166.56 60.56 164.01 65.25C169.09 67.16 172.92 71.65 173.88 77.13C174.86 82.69 172.76 88.25 168.54 91.77C172.75 95.29 174.85 100.85 173.87 106.4C172.89 111.96 169.01 116.47 163.84 118.33C166.59 123.08 166.67 129.02 163.85 133.9C161.08 138.69 155.92 141.67 150.37 141.67C150.36 141.67 150.35 141.67 150.34 141.67C151.31 147.08 149.35 152.69 145.03 156.32C142.23 158.67 138.69 159.96 135.04 159.96C133.11 159.96 131.21 159.61 129.44 158.92C128.37 164.14 124.64 168.58 119.51 170.45C117.79 171.08 116 171.39 114.19 171.39C110.53 171.39 107.04 170.12 104.28 167.83C101.53 172.51 96.4398 175.5 90.8698 175.5Z" stroke="#163D35" stroke-miterlimit="10"/>
<path d="M40.8999 130.191H136.86" stroke="#163D35" stroke-miterlimit="10"/>
<path d="M94.3976 69.2598C94.6689 69.7385 94.8001 70.2839 94.7763 70.8336C94.7524 71.3833 94.5744 71.9153 94.2627 72.3687C93.2192 74.2045 91.9706 75.9248 90.7796 77.6745C90.5393 77.968 90.21 78.1754 89.8415 78.2653C90.4073 75.7132 89.6206 72.9242 91.4329 70.6C90.5885 71.1378 89.723 71.6465 88.9148 72.2342C88.7192 72.466 88.6146 72.7611 88.6205 73.0644C88.6071 74.0618 88.5407 75.0578 88.4216 76.0481C88.1883 77.0196 87.875 77.9702 87.4847 78.89C86.9315 80.276 85.8569 81.3899 84.4917 81.9927C84.2699 82.0567 84.0399 82.0872 83.8091 82.0833C84.0378 80.295 84.2539 78.6061 84.4571 77.0168C81.9312 77.6778 79.4563 78.328 76.9773 78.962C76.8172 78.8999 76.672 78.8046 76.5512 78.6825C77.772 77.6155 78.8713 76.5092 80.1152 75.6009C82.0687 74.1004 84.335 73.059 86.746 72.5539C87.7287 72.3654 88.5898 71.5423 89.7464 70.8682C87.8335 70.9334 86.2041 71.0025 84.574 71.0315C84.2767 70.9925 83.9868 70.9104 83.7132 70.7879C83.9395 70.5751 84.1797 70.3774 84.432 70.1962C85.4359 69.6417 86.4097 69.0345 87.3495 68.3772C88.9412 67.119 90.7885 67.0238 92.656 67.0305C93.7531 67.0345 94.8491 67.3073 95.9466 67.3147C96.4866 67.2193 97.01 67.0465 97.5007 66.8017C98.7373 66.4537 99.9446 66.0093 101.111 65.4725C99.4124 65.435 97.707 65.2878 96.0153 65.3839C92.9754 65.4295 89.9431 65.7024 86.9439 66.2002C82.3165 67.1735 77.7819 68.5889 73.2112 69.829C72.9613 69.8959 72.732 70.0237 72.5436 70.2009C71.1182 71.6125 69.7398 73.0728 68.2873 74.4555C67.0086 75.6726 65.6583 76.8152 64.3262 77.9753C63.9951 78.2283 63.6495 78.4618 63.2912 78.6745C62.9134 77.4003 64.026 76.7531 64.1388 75.928C61.7839 77.4158 59.2381 78.5776 56.5712 79.3817L56.3123 79.0933L57.2153 77.8223C55.2085 79.2147 52.8398 79.2163 50.573 79.5958C50.3837 79.6499 50.1868 79.6721 49.9902 79.6616C49.7254 79.593 49.4667 79.5027 49.2168 79.3916C49.2999 79.1604 49.4169 78.9429 49.564 78.7462C51.753 76.6022 54.1565 74.8346 57.3162 74.4265C57.3864 74.4227 57.4533 74.395 57.5056 74.348C55.6828 73.6151 53.7719 72.8613 51.877 72.0695C51.5984 71.898 51.3474 71.6853 51.1325 71.4388C51.4514 71.283 51.7895 71.1699 52.138 71.1024C54.6636 70.9523 57.1914 70.8378 59.785 70.5278C59.2071 70.373 58.6202 70.2437 58.0566 70.0478C57.9601 70.0069 57.8747 69.9436 57.8076 69.863C57.7405 69.7825 57.6936 69.6871 57.6708 69.5847C57.6995 69.4872 57.7523 69.3984 57.8243 69.3265C57.8963 69.2547 57.9852 69.202 58.0829 69.1735C60.1442 68.8118 62.2056 68.4432 64.2776 68.1518C66.6835 67.8182 69.134 68.2166 71.3103 69.2952C71.5974 69.428 71.9205 69.4618 72.2289 69.3912C76.6058 68.172 80.9782 66.9363 85.346 65.6842C85.4405 65.6357 85.5299 65.5776 85.6128 65.511C85.1145 65.2658 84.6805 65.015 84.219 64.8342C83.9127 64.7111 83.5809 64.6651 83.2526 64.7001C82.9243 64.7352 82.6097 64.8503 82.3363 65.0352C80.2208 66.3273 77.6918 66.7627 75.266 66.2526C74.5496 65.9527 73.8851 65.5416 73.2969 65.0344C72.8534 64.7588 72.4241 64.4611 72.0106 64.1424C71.9319 64.0712 71.8682 63.985 71.8232 63.8888C71.7783 63.7926 71.753 63.6884 71.7489 63.5824C71.7833 63.5 71.8383 63.4279 71.9086 63.373C71.9789 63.318 72.0621 63.282 72.1503 63.2685C74.0315 63.6691 75.6278 62.4701 77.4114 62.3551C77.9133 62.3228 78.4158 62.2991 78.918 62.2715L78.941 61.9424C78.5047 61.8394 78.0534 61.8153 77.6085 61.8713C76.0387 62.2408 74.3995 62.1938 72.8534 61.7349C70.8805 61.2989 68.9308 60.7641 67.0114 60.1327C66.7326 59.9846 66.4831 59.7871 66.2748 59.5499C66.5102 59.3556 66.7732 59.1973 67.0552 59.0804C68.8652 58.6374 70.6843 58.2318 72.5904 57.7932C72.3558 57.464 72.0319 57.209 71.657 57.0581C71.282 56.9073 70.8717 56.867 70.4746 56.9421C69.2076 57.023 67.9365 56.8702 66.7248 56.4914C64.8121 56.0562 62.9296 55.4878 61.0355 54.9711C60.8559 54.899 60.6812 54.815 60.5127 54.7197C61.487 53.9903 62.6022 53.4714 63.7876 53.1957C64.9765 53.0166 66.1756 52.914 67.3776 52.8885C67.2281 52.7859 67.0616 52.7103 66.8859 52.6654C64.8872 52.7617 63.6995 51.5919 62.9261 49.9736C62.1409 48.3306 61.4976 46.617 60.8591 44.9093C60.8461 44.5496 60.9183 44.1919 61.0699 43.8655C61.2902 44.0577 61.5034 44.2589 61.732 44.4408C62.8711 45.3469 64.027 46.2323 65.1512 47.1563C65.894 47.7266 66.5875 48.3585 67.2244 49.0451C67.3997 49.2386 67.5324 49.4669 67.6138 49.715C67.6951 49.9632 67.7234 50.2256 67.6966 50.4854C67.1 52.4072 68.7262 52.8655 69.6152 53.839L69.7772 44.7728C69.9953 44.8201 70.2011 44.9127 70.3811 45.0445C71.8185 47.4819 73.8515 49.6695 74.0765 52.6433C74.0844 53.9069 73.8957 55.1641 73.5172 56.3697C73.41 56.6393 73.4049 56.9387 73.5027 57.2118C73.6004 57.4849 73.7945 57.713 74.0483 57.8533C75.248 58.6661 76.441 59.4889 77.5187 60.2268C77.2817 58.691 77.0045 57.1405 76.8142 55.5795C76.6731 54.423 76.6235 53.2535 76.5808 52.0881C76.584 51.9171 76.6272 51.7494 76.7071 51.5982C76.787 51.4471 76.9013 51.3169 77.0408 51.218C77.4892 52.1719 77.9144 53.1375 78.3912 54.0771C79.2798 55.8285 80.2604 57.5365 81.0712 59.3224C81.3484 60.0084 81.4303 60.7578 81.308 61.4875C81.2503 61.6812 81.2318 61.8845 81.2534 62.0854C81.275 62.2864 81.3364 62.481 81.434 62.658C81.5316 62.835 81.6634 62.9908 81.8218 63.1163C81.9802 63.2419 82.1619 63.3347 82.3565 63.3893C83.5753 63.8662 84.8495 64.2291 86.0123 64.8149C87.6168 65.6231 89.2045 64.9835 90.796 64.9718C94.8105 64.9422 98.8247 64.8693 102.839 64.8326C103.649 64.8683 104.461 64.8577 105.27 64.8007C103.221 63.9463 101.172 63.0919 99.1087 62.2313C99.3343 61.3363 104.105 60.507 107.368 61.3213L104.772 59.3208L104.757 59.6229C104.171 59.761 103.573 59.8399 102.971 59.8586C100.48 59.6978 98.3903 58.3824 96.1869 57.3978C95.0566 56.8927 93.921 56.3993 92.7961 55.8826C92.491 55.7232 92.1949 55.547 91.9093 55.3548L91.9671 55.0621C92.274 55.0319 92.5823 55.0171 92.8907 55.018C93.7907 55.0618 94.6904 55.1864 95.5888 55.1736C97.2569 55.0788 98.9216 55.413 100.424 56.1441C100.739 56.3104 101.088 56.4128 101.556 56.5975C100.815 55.8546 100.203 55.1692 99.5114 54.5784C99.1819 54.2399 98.7367 54.038 98.2649 54.0131C94.9185 54.6652 92.6029 52.8738 90.3539 50.838C89.3632 49.9412 88.309 49.1148 87.3011 48.2365C87.1727 48.0701 87.0749 47.8822 87.0126 47.6815C87.2355 47.6474 87.4618 47.6424 87.686 47.6665C89.0636 47.9488 90.4262 48.3001 91.7687 48.719C92.9757 49.199 94.1556 49.7446 95.3031 50.3535C95.5301 50.4725 95.7505 50.6035 95.9635 50.7461C95.3897 49.8443 94.8753 48.9059 94.4238 47.937C94.0206 46.8658 93.7183 45.7594 93.5209 44.632C93.1569 42.7775 92.8685 40.9075 92.5853 39.0384C92.599 38.7441 92.6652 38.4546 92.7809 38.1836C92.9746 38.3645 93.1828 38.5325 93.3585 38.7295C93.6107 39.0654 93.8811 39.3874 94.1683 39.6939C97.161 42.3813 98.2406 45.8244 98.1631 49.7283C98.1509 50.342 98.0821 50.9546 98.0726 51.5682C98.069 51.7573 98.1326 51.9415 98.252 52.0881C99.6951 53.5931 101.153 55.0834 102.741 56.7147C102.514 55.2231 102.224 53.9561 102.155 52.6771C102.091 51.4793 101.751 50.2193 102.338 49.0029C102.448 49.0402 102.55 49.0959 102.641 49.1677C102.86 51.3964 104.602 52.794 105.603 54.5944C106.539 56.2788 107.658 57.8883 107.468 59.9669C107.461 60.0789 107.478 60.1912 107.519 60.2957C107.561 60.4002 107.624 60.4943 107.706 60.5715C108.909 61.3769 110.137 62.145 111.316 62.8981C110.655 60.3921 110.019 57.9822 109.383 55.5725C109.302 55.3937 109.253 55.2022 109.238 55.0065C109.297 54.7513 109.383 54.5033 109.496 54.267C109.675 54.4053 109.845 54.5546 110.006 54.7142C110.408 55.2959 110.881 55.8254 111.413 56.2904C112.714 57.1511 113.796 58.3037 114.572 59.6563C115.349 61.0089 115.799 62.5241 115.886 64.0813C116.094 65.9201 116.251 66.0764 118.064 66.437C121.466 67.1141 124.878 67.7454 128.291 68.371C128.826 68.4355 129.365 68.4644 129.905 68.4575L129.979 68.7003C129.765 68.8617 129.52 68.9763 129.259 69.0366C128.154 69.0364 127.05 68.967 125.953 68.8288C123.817 68.5024 121.694 68.0886 119.569 67.6878C118.871 67.556 118.194 67.3082 117.493 67.2005C117.173 67.1884 116.853 67.2277 116.545 67.3168C115.843 67.0115 115.112 66.7777 114.363 66.619C111.274 66.2999 108.179 65.9842 105.078 65.8393C103.901 65.8914 102.735 66.0886 101.606 66.4262C101.491 66.4701 101.387 66.5368 101.3 66.6223C101.212 66.7077 101.142 66.8102 101.096 66.9234C99.8591 69.948 98.0195 72.6892 95.6891 74.9798C95.2499 75.3168 94.7835 75.6169 94.2947 75.877C94.3119 74.2549 94.5722 72.6445 95.0671 71.0996C95.2471 70.3591 95.5846 69.6661 96.0567 69.0679C96.5288 68.4696 97.1243 67.9803 97.8027 67.6331C93.4628 68.9074 90.2511 72.0658 90.8674 76.6349C91.7025 75.4961 92.4647 74.3057 93.1493 73.0706C93.6502 71.8297 94.0673 70.5566 94.3976 69.2598ZM59.5246 69.7639C61.0743 70.9558 62.9675 71.6155 64.9224 71.6448C66.9017 71.518 68.8194 70.9064 70.5066 69.864C66.7949 67.9326 63.2837 69.1022 59.5246 69.7639ZM72.5056 56.507C74.5183 53.5919 73.0957 49.7249 70.5348 46.9629C70.5216 48.2187 70.4401 49.4729 70.2907 50.7198C69.884 53.09 71.0558 54.7746 72.5056 56.507ZM96.5981 50.4143C96.9517 50.0779 97.2116 49.6554 97.3524 49.1881C97.4931 48.7209 97.5099 48.225 97.401 47.7493C96.9797 46.1859 96.4793 44.6448 95.9017 43.1321C95.3272 41.8442 94.4198 40.7328 93.2729 39.9122C94.0296 43.6919 94.2812 47.3148 96.5981 50.4143ZM110.556 56.9009C110.689 59.9647 112.545 64.7346 115.137 64.8672C115.23 63.2378 114.846 61.6166 114.033 60.2018C113.219 58.787 112.011 57.64 110.556 56.901V56.9009ZM111.091 63.8171C109.221 62.0475 103.121 61.0328 101.305 62.3046C106.904 64.9206 109.267 65.2859 111.091 63.8171ZM66.4265 72.4309L66.3051 72.0901C65.2271 72.4483 63.8625 72.5296 63.1631 73.2537C62.6584 73.7955 62.0708 74.2537 61.4223 74.6111C59.9851 75.4996 58.7894 76.7291 57.9414 78.1906C61.4715 76.9667 64.3917 75.3372 66.4265 72.4309ZM73.6672 64.1707C75.3786 66.7206 80.1871 65.5557 82.202 64.0475C81.7677 63.9996 81.4942 63.9708 81.2209 63.939C80.7285 63.9906 80.231 63.9192 79.7729 63.7312C79.3412 63.3768 78.823 63.1434 78.2715 63.0549C77.7199 62.9664 77.1548 63.0259 76.6338 63.2274C75.6569 63.4531 74.7152 63.8307 73.6672 64.1707ZM77.4641 61.2463C74.6292 58.5206 71.5116 58.4436 68.086 59.6433C71.1005 60.8249 74.0817 61.6839 77.4641 61.2463ZM61.2174 73.5573C59.6911 74.2439 57.9549 74.9936 56.2503 75.809C55.6786 76.0825 55.2893 77.047 54.5036 76.128C54.3761 76.1148 54.2483 76.149 54.1445 76.2243C52.9691 77.0004 51.8 77.7861 50.6292 78.5693L50.7964 78.8176C53.5843 78.829 56.2798 77.8192 58.3742 75.9791C59.3183 75.1023 60.3356 74.3044 61.2174 73.5573ZM89.5491 49.0286L89.3461 49.2772C91.0706 50.5279 92.7263 51.8936 94.5474 52.9829C95.0277 53.2771 95.5772 53.4392 96.1403 53.4529C96.7034 53.4666 97.2601 53.3313 97.7542 53.0608C95.3926 51.0039 92.7916 49.3345 89.5491 49.0286ZM84.8917 80.8114C86.7342 80.0583 88.5903 75.5366 87.9292 73.412C85.9374 74.1306 84.7609 76.9964 84.8917 80.8114ZM77.8592 54.3585C76.7548 56.9805 78.4271 61.4808 80.567 61.9946C80.7365 61.38 80.7745 60.7365 80.6784 60.1061C79.8261 58.1521 78.8126 56.2684 77.8592 54.3585ZM100.528 66.8069C98.9841 67.3812 97.6509 68.4115 96.7055 69.7609C95.7602 71.1104 95.2474 72.7154 95.2352 74.363C97.675 72.3327 98.9692 69.6237 100.528 66.8069ZM106.913 59.8514C106.522 56.561 104.616 54.3399 102.788 51.809C102.79 55.6635 103.794 57.8875 106.913 59.8513V59.8514ZM62.6212 46.4286C63.1713 48.7767 63.5579 51.1807 66.282 51.9829C67.1617 50.041 67.1471 49.5814 65.7949 48.502C64.7725 47.7579 63.7133 47.0659 62.6212 46.4285V46.4286ZM86.2858 70.1535C89.2189 70.4477 92.16 69.6765 94.5714 67.9808C93.1236 67.5519 91.5859 67.5276 90.1253 67.9106C88.6647 68.2936 87.3368 69.0693 86.2858 70.1535ZM53.7662 72.132C55.3671 72.8626 56.9257 73.8434 58.8318 72.8222L59.0807 73.5705L62.5677 72.4334C59.5437 71.0607 56.6679 71.3764 53.7662 72.132ZM62.4919 54.6523C64.4989 55.1901 66.244 55.6758 67.9996 56.1204C68.4156 56.3021 68.8674 56.3872 69.3211 56.3692C69.7747 56.3512 70.2184 56.2307 70.6187 56.0166C69.5877 54.8113 69.3996 54.722 68.7099 55.0795C67.8818 54.3019 66.8103 53.8346 65.6771 53.7568C64.5438 53.6789 63.4185 53.9953 62.4919 54.6523ZM78.9536 77.589C82.0119 77.2531 84.7889 76.5578 86.1446 73.533C83.3883 74.1153 80.8778 75.5314 78.9536 77.589ZM95.1199 56.1857C95.5979 56.3867 95.9533 56.5496 96.3183 56.6874C98.4216 57.4814 100.52 58.2879 102.638 59.0422C103.111 59.1269 103.592 59.1488 104.071 59.1073C102.876 57.7803 97.0653 55.1922 95.1199 56.1857ZM64.3346 77.1368L71.3591 70.691L71.1846 70.4475C70.243 70.7851 69.3206 71.1741 68.4216 71.6126C68.0898 71.7925 68.0488 72.4699 67.7207 72.7021C66.2484 73.8832 65.0862 75.4054 64.3346 77.1368ZM114.679 65.8509C112.868 64.2033 112.042 64.1161 110.048 65.309L114.679 65.8509Z" fill="#30524C"/>
<path d="M48.245 119H46.2125V114.26H41.1275V119H39.095V108.155H41.1275V112.82H46.2125V108.155H48.245V119ZM52.7054 119H50.6804V108.155H52.7054V119ZM60.1297 117.515C60.5847 117.515 60.9797 117.475 61.3147 117.395C61.6547 117.31 61.9772 117.195 62.2822 117.05V115.077H60.9247C60.7947 115.077 60.6922 115.042 60.6172 114.972C60.5422 114.897 60.5047 114.807 60.5047 114.702V113.562H64.1122V117.95C63.8372 118.15 63.5497 118.325 63.2497 118.475C62.9547 118.62 62.6372 118.74 62.2972 118.835C61.9622 118.93 61.6022 119 61.2172 119.045C60.8322 119.095 60.4172 119.12 59.9722 119.12C59.1822 119.12 58.4547 118.983 57.7897 118.707C57.1247 118.432 56.5497 118.05 56.0647 117.56C55.5797 117.07 55.1997 116.485 54.9247 115.805C54.6547 115.125 54.5197 114.382 54.5197 113.577C54.5197 112.762 54.6522 112.015 54.9172 111.335C55.1822 110.655 55.5572 110.07 56.0422 109.58C56.5322 109.09 57.1247 108.71 57.8197 108.44C58.5147 108.17 59.2947 108.035 60.1597 108.035C61.0447 108.035 61.8097 108.167 62.4547 108.432C63.1047 108.692 63.6547 109.032 64.1047 109.452L63.5197 110.367C63.4047 110.552 63.2522 110.645 63.0622 110.645C62.9422 110.645 62.8197 110.605 62.6947 110.525C62.5347 110.43 62.3697 110.335 62.1997 110.24C62.0347 110.145 61.8497 110.062 61.6447 109.992C61.4447 109.922 61.2172 109.865 60.9622 109.82C60.7122 109.775 60.4222 109.752 60.0922 109.752C59.5572 109.752 59.0722 109.842 58.6372 110.022C58.2072 110.202 57.8397 110.46 57.5347 110.795C57.2297 111.13 56.9947 111.532 56.8297 112.002C56.6647 112.472 56.5822 112.997 56.5822 113.577C56.5822 114.202 56.6697 114.76 56.8447 115.25C57.0197 115.735 57.2647 116.145 57.5797 116.48C57.8947 116.815 58.2697 117.072 58.7047 117.252C59.1397 117.427 59.6147 117.515 60.1297 117.515ZM75.1395 119H73.107V114.26H68.022V119H65.9895V108.155H68.022V112.82H73.107V108.155H75.1395V119ZM90.6303 113.577C90.6303 114.062 90.5803 114.527 90.4803 114.972C90.3803 115.412 90.2353 115.825 90.0453 116.21C89.8603 116.595 89.6328 116.95 89.3628 117.275C89.0928 117.595 88.7853 117.877 88.4403 118.122L91.1928 121.123H89.5278C89.2878 121.123 89.0703 121.09 88.8753 121.025C88.6853 120.96 88.5103 120.84 88.3503 120.665L86.7603 118.91C86.5053 118.98 86.2428 119.033 85.9728 119.068C85.7078 119.103 85.4303 119.12 85.1403 119.12C84.3203 119.12 83.5703 118.983 82.8903 118.707C82.2153 118.427 81.6353 118.04 81.1503 117.545C80.6703 117.05 80.2978 116.465 80.0328 115.79C79.7678 115.11 79.6353 114.372 79.6353 113.577C79.6353 112.782 79.7678 112.047 80.0328 111.372C80.2978 110.692 80.6703 110.105 81.1503 109.61C81.6353 109.115 82.2153 108.73 82.8903 108.455C83.5703 108.175 84.3203 108.035 85.1403 108.035C85.9603 108.035 86.7078 108.175 87.3828 108.455C88.0578 108.735 88.6353 109.122 89.1153 109.617C89.5953 110.107 89.9678 110.692 90.2328 111.372C90.4978 112.047 90.6303 112.782 90.6303 113.577ZM88.5603 113.577C88.5603 112.982 88.4803 112.45 88.3203 111.98C88.1653 111.505 87.9403 111.102 87.6453 110.772C87.3503 110.442 86.9903 110.19 86.5653 110.015C86.1453 109.84 85.6703 109.752 85.1403 109.752C84.6103 109.752 84.1328 109.84 83.7078 110.015C83.2828 110.19 82.9203 110.442 82.6203 110.772C82.3253 111.102 82.0978 111.505 81.9378 111.98C81.7778 112.45 81.6978 112.982 81.6978 113.577C81.6978 114.172 81.7778 114.707 81.9378 115.182C82.0978 115.652 82.3253 116.052 82.6203 116.382C82.9203 116.707 83.2828 116.957 83.7078 117.132C84.1328 117.307 84.6103 117.395 85.1403 117.395C85.6703 117.395 86.1453 117.307 86.5653 117.132C86.9903 116.957 87.3503 116.707 87.6453 116.382C87.9403 116.052 88.1653 115.652 88.3203 115.182C88.4803 114.707 88.5603 114.172 88.5603 113.577ZM96.5899 117.372C96.9799 117.372 97.3274 117.307 97.6324 117.177C97.9424 117.047 98.2024 116.865 98.4124 116.63C98.6274 116.395 98.7899 116.11 98.8999 115.775C99.0149 115.44 99.0724 115.065 99.0724 114.65V108.155H101.09V114.65C101.09 115.295 100.985 115.892 100.775 116.442C100.57 116.987 100.272 117.46 99.8824 117.86C99.4924 118.255 99.0199 118.565 98.4649 118.79C97.9099 119.01 97.2849 119.12 96.5899 119.12C95.8949 119.12 95.2699 119.01 94.7149 118.79C94.1599 118.565 93.6874 118.255 93.2974 117.86C92.9124 117.46 92.6149 116.987 92.4049 116.442C92.1999 115.892 92.0974 115.295 92.0974 114.65V108.155H94.1149V114.642C94.1149 115.057 94.1699 115.432 94.2799 115.767C94.3949 116.102 94.5574 116.39 94.7674 116.63C94.9774 116.865 95.2349 117.047 95.5399 117.177C95.8499 117.307 96.1999 117.372 96.5899 117.372ZM112.275 119H110.715C110.54 119 110.395 118.957 110.28 118.872C110.17 118.782 110.09 118.672 110.04 118.542L109.23 116.33H104.737L103.927 118.542C103.887 118.657 103.807 118.762 103.687 118.857C103.572 118.952 103.43 119 103.26 119H101.692L105.952 108.155H108.015L112.275 119ZM105.255 114.905H108.712L107.392 111.297C107.332 111.137 107.265 110.95 107.19 110.735C107.12 110.515 107.05 110.277 106.98 110.022C106.91 110.277 106.84 110.515 106.77 110.735C106.705 110.955 106.64 111.147 106.575 111.312L105.255 114.905ZM115.409 117.335H119.752V119H113.392V108.155H115.409V117.335ZM123.413 119H121.388V108.155H123.413V119ZM133.5 108.155V109.812H130.238V119H128.22V109.812H124.943V108.155H133.5ZM139.601 114.785V119H137.584V114.785L133.631 108.155H135.409C135.584 108.155 135.721 108.197 135.821 108.282C135.926 108.367 136.014 108.475 136.084 108.605L138.071 112.227C138.186 112.442 138.286 112.647 138.371 112.842C138.456 113.032 138.534 113.22 138.604 113.405C138.669 113.215 138.741 113.025 138.821 112.835C138.906 112.64 139.006 112.437 139.121 112.227L141.094 108.605C141.149 108.495 141.231 108.392 141.341 108.297C141.451 108.202 141.591 108.155 141.761 108.155H143.546L139.601 114.785Z" fill="#163D35"/>
<path d="M55.412 144.668C55.564 144.668 55.68 144.712 55.76 144.8C55.84 144.888 55.872 145.004 55.856 145.148L55.748 146H50.24L50.3 145.526C50.312 145.43 50.342 145.33 50.39 145.226C50.442 145.118 50.52 145.02 50.624 144.932L53.348 142.274C53.616 142.018 53.848 141.778 54.044 141.554C54.244 141.326 54.41 141.104 54.542 140.888C54.674 140.668 54.772 140.446 54.836 140.222C54.904 139.998 54.938 139.758 54.938 139.502C54.938 139.154 54.852 138.89 54.68 138.71C54.508 138.53 54.268 138.44 53.96 138.44C53.804 138.44 53.656 138.466 53.516 138.518C53.38 138.57 53.254 138.642 53.138 138.734C53.026 138.826 52.926 138.936 52.838 139.064C52.754 139.188 52.686 139.324 52.634 139.472C52.546 139.652 52.446 139.772 52.334 139.832C52.222 139.888 52.07 139.9 51.878 139.868L51.14 139.736C51.248 139.324 51.4 138.962 51.596 138.65C51.796 138.334 52.028 138.072 52.292 137.864C52.56 137.656 52.854 137.5 53.174 137.396C53.498 137.288 53.838 137.234 54.194 137.234C54.534 137.234 54.84 137.286 55.112 137.39C55.388 137.49 55.622 137.634 55.814 137.822C56.006 138.01 56.154 138.236 56.258 138.5C56.362 138.764 56.414 139.056 56.414 139.376C56.414 139.74 56.36 140.074 56.252 140.378C56.148 140.678 56.004 140.964 55.82 141.236C55.64 141.504 55.428 141.766 55.184 142.022C54.944 142.274 54.688 142.532 54.416 142.796L52.316 144.86C52.516 144.804 52.714 144.758 52.91 144.722C53.11 144.686 53.294 144.668 53.462 144.668H55.412ZM65.2109 140.714C65.2109 141.622 65.1149 142.414 64.9229 143.09C64.7349 143.762 64.4789 144.322 64.1549 144.77C63.8309 145.214 63.4529 145.546 63.0209 145.766C62.5889 145.986 62.1309 146.096 61.6469 146.096C61.2829 146.096 60.9489 146.024 60.6449 145.88C60.3449 145.736 60.0869 145.52 59.8709 145.232C59.6549 144.94 59.4869 144.576 59.3669 144.14C59.2469 143.704 59.1869 143.196 59.1869 142.616C59.1869 141.708 59.2809 140.918 59.4689 140.246C59.6569 139.57 59.9109 139.01 60.2309 138.566C60.5509 138.118 60.9249 137.784 61.3529 137.564C61.7849 137.344 62.2449 137.234 62.7329 137.234C63.0969 137.234 63.4289 137.306 63.7289 137.45C64.0329 137.594 64.2949 137.812 64.5149 138.104C64.7349 138.392 64.9049 138.754 65.0249 139.19C65.1489 139.626 65.2109 140.134 65.2109 140.714ZM63.7409 140.642C63.7409 140.226 63.7089 139.878 63.6449 139.598C63.5849 139.314 63.5009 139.086 63.3929 138.914C63.2889 138.738 63.1669 138.612 63.0269 138.536C62.8909 138.46 62.7449 138.422 62.5889 138.422C62.4289 138.422 62.2689 138.454 62.1089 138.518C61.9529 138.578 61.8029 138.676 61.6589 138.812C61.5149 138.948 61.3809 139.126 61.2569 139.346C61.1329 139.566 61.0249 139.836 60.9329 140.156C60.8449 140.472 60.7749 140.84 60.7229 141.26C60.6749 141.68 60.6509 142.16 60.6509 142.7C60.6509 143.112 60.6809 143.46 60.7409 143.744C60.8049 144.024 60.8889 144.25 60.9929 144.422C61.0969 144.594 61.2169 144.718 61.3529 144.794C61.4929 144.87 61.6389 144.908 61.7909 144.908C62.0309 144.908 62.2669 144.838 62.4989 144.698C62.7309 144.558 62.9389 144.322 63.1229 143.99C63.3069 143.658 63.4549 143.22 63.5669 142.676C63.6829 142.132 63.7409 141.454 63.7409 140.642ZM72.6939 144.668C72.8459 144.668 72.9619 144.712 73.0419 144.8C73.1219 144.888 73.1539 145.004 73.1379 145.148L73.0299 146H67.5219L67.5819 145.526C67.5939 145.43 67.6239 145.33 67.6719 145.226C67.7239 145.118 67.8019 145.02 67.9059 144.932L70.6299 142.274C70.8979 142.018 71.1299 141.778 71.3259 141.554C71.5259 141.326 71.6919 141.104 71.8239 140.888C71.9559 140.668 72.0539 140.446 72.1179 140.222C72.1859 139.998 72.2199 139.758 72.2199 139.502C72.2199 139.154 72.1339 138.89 71.9619 138.71C71.7899 138.53 71.5499 138.44 71.2419 138.44C71.0859 138.44 70.9379 138.466 70.7979 138.518C70.6619 138.57 70.5359 138.642 70.4199 138.734C70.3079 138.826 70.2079 138.936 70.1199 139.064C70.0359 139.188 69.9679 139.324 69.9159 139.472C69.8279 139.652 69.7279 139.772 69.6159 139.832C69.5039 139.888 69.3519 139.9 69.1599 139.868L68.4219 139.736C68.5299 139.324 68.6819 138.962 68.8779 138.65C69.0779 138.334 69.3099 138.072 69.5739 137.864C69.8419 137.656 70.1359 137.5 70.4559 137.396C70.7799 137.288 71.1199 137.234 71.4759 137.234C71.8159 137.234 72.1219 137.286 72.3939 137.39C72.6699 137.49 72.9039 137.634 73.0959 137.822C73.2879 138.01 73.4359 138.236 73.5399 138.5C73.6439 138.764 73.6959 139.056 73.6959 139.376C73.6959 139.74 73.6419 140.074 73.5339 140.378C73.4299 140.678 73.2859 140.964 73.1019 141.236C72.9219 141.504 72.7099 141.766 72.4659 142.022C72.2259 142.274 71.9699 142.532 71.6979 142.796L69.5979 144.86C69.7979 144.804 69.9959 144.758 70.1919 144.722C70.3919 144.686 70.5759 144.668 70.7439 144.668H72.6939ZM82.4928 140.714C82.4928 141.622 82.3968 142.414 82.2048 143.09C82.0168 143.762 81.7608 144.322 81.4368 144.77C81.1128 145.214 80.7348 145.546 80.3028 145.766C79.8708 145.986 79.4128 146.096 78.9288 146.096C78.5648 146.096 78.2308 146.024 77.9268 145.88C77.6268 145.736 77.3688 145.52 77.1528 145.232C76.9368 144.94 76.7688 144.576 76.6488 144.14C76.5288 143.704 76.4688 143.196 76.4688 142.616C76.4688 141.708 76.5628 140.918 76.7508 140.246C76.9388 139.57 77.1928 139.01 77.5128 138.566C77.8328 138.118 78.2068 137.784 78.6348 137.564C79.0668 137.344 79.5268 137.234 80.0148 137.234C80.3788 137.234 80.7108 137.306 81.0108 137.45C81.3148 137.594 81.5768 137.812 81.7968 138.104C82.0168 138.392 82.1868 138.754 82.3068 139.19C82.4308 139.626 82.4928 140.134 82.4928 140.714ZM81.0228 140.642C81.0228 140.226 80.9908 139.878 80.9268 139.598C80.8668 139.314 80.7828 139.086 80.6748 138.914C80.5708 138.738 80.4488 138.612 80.3088 138.536C80.1728 138.46 80.0268 138.422 79.8708 138.422C79.7108 138.422 79.5508 138.454 79.3908 138.518C79.2348 138.578 79.0848 138.676 78.9408 138.812C78.7968 138.948 78.6628 139.126 78.5388 139.346C78.4148 139.566 78.3068 139.836 78.2148 140.156C78.1268 140.472 78.0568 140.84 78.0048 141.26C77.9568 141.68 77.9328 142.16 77.9328 142.7C77.9328 143.112 77.9628 143.46 78.0228 143.744C78.0868 144.024 78.1708 144.25 78.2748 144.422C78.3788 144.594 78.4988 144.718 78.6348 144.794C78.7748 144.87 78.9208 144.908 79.0728 144.908C79.3128 144.908 79.5488 144.838 79.7808 144.698C80.0128 144.558 80.2208 144.322 80.4048 143.99C80.5888 143.658 80.7368 143.22 80.8488 142.676C80.9648 142.132 81.0228 141.454 81.0228 140.642ZM93.1888 140.816C93.1328 140.812 93.0788 140.81 93.0268 140.81C92.9788 140.806 92.9308 140.804 92.8828 140.804C92.5508 140.804 92.2428 140.88 91.9588 141.032C91.6748 141.184 91.4288 141.39 91.2208 141.65C91.0168 141.906 90.8548 142.206 90.7348 142.55C90.6188 142.89 90.5608 143.25 90.5608 143.63C90.5608 144.062 90.6288 144.378 90.7648 144.578C90.9008 144.778 91.0868 144.878 91.3228 144.878C91.4868 144.878 91.6468 144.822 91.8028 144.71C91.9628 144.594 92.1128 144.438 92.2528 144.242C92.3968 144.042 92.5268 143.808 92.6428 143.54C92.7628 143.272 92.8668 142.984 92.9548 142.676L93.1888 140.816ZM92.7808 144.716C92.5088 145.136 92.2008 145.47 91.8568 145.718C91.5168 145.966 91.1448 146.09 90.7408 146.09C90.5088 146.09 90.2908 146.044 90.0868 145.952C89.8868 145.86 89.7108 145.724 89.5588 145.544C89.4108 145.36 89.2928 145.132 89.2048 144.86C89.1208 144.584 89.0788 144.262 89.0788 143.894C89.0788 143.526 89.1248 143.168 89.2168 142.82C89.3088 142.472 89.4388 142.146 89.6068 141.842C89.7788 141.534 89.9848 141.252 90.2248 140.996C90.4648 140.74 90.7328 140.52 91.0288 140.336C91.3288 140.152 91.6508 140.01 91.9948 139.91C92.3428 139.806 92.7088 139.754 93.0928 139.754C93.3688 139.754 93.6448 139.774 93.9208 139.814C94.2008 139.854 94.4728 139.926 94.7368 140.03L93.9988 146H93.2128C93.0248 146 92.8968 145.954 92.8288 145.862C92.7648 145.766 92.7328 145.648 92.7328 145.508L92.7808 144.716ZM105.837 139.844L103.293 146H102.147C102.023 146 101.947 145.912 101.919 145.736L101.331 142.178C101.307 142.026 101.289 141.872 101.277 141.716C101.249 141.796 101.221 141.876 101.193 141.956C101.165 142.032 101.135 142.11 101.103 142.19L99.6448 145.736C99.5728 145.912 99.4648 146 99.3208 146H98.2228L97.1788 139.844H98.3068C98.4068 139.844 98.4888 139.87 98.5528 139.922C98.6168 139.974 98.6568 140.04 98.6728 140.12L99.0328 143.408C99.0448 143.588 99.0548 143.76 99.0628 143.924C99.0708 144.088 99.0788 144.254 99.0868 144.422C99.1468 144.254 99.2088 144.088 99.2728 143.924C99.3408 143.76 99.4088 143.588 99.4768 143.408L100.815 140.108C100.847 140.028 100.899 139.962 100.971 139.91C101.043 139.858 101.125 139.832 101.217 139.832H101.847C101.951 139.832 102.035 139.858 102.099 139.91C102.163 139.962 102.199 140.028 102.207 140.108L102.717 143.408C102.741 143.588 102.763 143.762 102.783 143.93C102.807 144.094 102.827 144.26 102.843 144.428C102.887 144.264 102.935 144.098 102.987 143.93C103.043 143.762 103.101 143.588 103.161 143.408L104.355 140.12C104.383 140.04 104.433 139.974 104.505 139.922C104.577 139.87 104.659 139.844 104.751 139.844H105.837ZM111.514 140.816C111.458 140.812 111.404 140.81 111.352 140.81C111.304 140.806 111.256 140.804 111.208 140.804C110.876 140.804 110.568 140.88 110.284 141.032C110 141.184 109.754 141.39 109.546 141.65C109.342 141.906 109.18 142.206 109.06 142.55C108.944 142.89 108.886 143.25 108.886 143.63C108.886 144.062 108.954 144.378 109.09 144.578C109.226 144.778 109.412 144.878 109.648 144.878C109.812 144.878 109.972 144.822 110.128 144.71C110.288 144.594 110.438 144.438 110.578 144.242C110.722 144.042 110.852 143.808 110.968 143.54C111.088 143.272 111.192 142.984 111.28 142.676L111.514 140.816ZM111.106 144.716C110.834 145.136 110.526 145.47 110.182 145.718C109.842 145.966 109.47 146.09 109.066 146.09C108.834 146.09 108.616 146.044 108.412 145.952C108.212 145.86 108.036 145.724 107.884 145.544C107.736 145.36 107.618 145.132 107.53 144.86C107.446 144.584 107.404 144.262 107.404 143.894C107.404 143.526 107.45 143.168 107.542 142.82C107.634 142.472 107.764 142.146 107.932 141.842C108.104 141.534 108.31 141.252 108.55 140.996C108.79 140.74 109.058 140.52 109.354 140.336C109.654 140.152 109.976 140.01 110.32 139.91C110.668 139.806 111.034 139.754 111.418 139.754C111.694 139.754 111.97 139.774 112.246 139.814C112.526 139.854 112.798 139.926 113.062 140.03L112.324 146H111.538C111.35 146 111.222 145.954 111.154 145.862C111.09 145.766 111.058 145.648 111.058 145.508L111.106 144.716ZM117.31 141.32C117.466 141.016 117.632 140.756 117.808 140.54C117.988 140.32 118.174 140.15 118.366 140.03C118.558 139.906 118.756 139.834 118.96 139.814C119.164 139.79 119.368 139.822 119.572 139.91L119.302 141.326C118.814 141.122 118.386 141.172 118.018 141.476C117.654 141.78 117.362 142.378 117.142 143.27L116.812 146H115.36L116.104 139.838H116.86C117.016 139.838 117.136 139.876 117.22 139.952C117.308 140.028 117.352 140.15 117.352 140.318L117.31 141.32ZM125.354 141.278C125.218 141.13 125.062 141.026 124.886 140.966C124.71 140.906 124.536 140.876 124.364 140.876C124.1 140.876 123.86 140.958 123.644 141.122C123.428 141.286 123.242 141.5 123.086 141.764C122.934 142.028 122.816 142.326 122.732 142.658C122.648 142.986 122.606 143.316 122.606 143.648C122.606 144.08 122.676 144.402 122.816 144.614C122.96 144.822 123.158 144.926 123.41 144.926C123.57 144.926 123.734 144.872 123.902 144.764C124.07 144.652 124.232 144.5 124.388 144.308C124.544 144.112 124.688 143.882 124.82 143.618C124.956 143.354 125.072 143.07 125.168 142.766L125.354 141.278ZM127.328 137.084L126.224 146H125.438C125.25 146 125.122 145.954 125.054 145.862C124.99 145.766 124.958 145.648 124.958 145.508L125.012 144.65C124.864 144.87 124.706 145.07 124.538 145.25C124.37 145.426 124.194 145.576 124.01 145.7C123.826 145.824 123.634 145.92 123.434 145.988C123.238 146.056 123.036 146.09 122.828 146.09C122.572 146.09 122.34 146.044 122.132 145.952C121.924 145.856 121.746 145.714 121.598 145.526C121.45 145.338 121.336 145.1 121.256 144.812C121.176 144.524 121.136 144.184 121.136 143.792C121.136 143.444 121.172 143.104 121.244 142.772C121.316 142.436 121.418 142.118 121.55 141.818C121.682 141.518 121.838 141.242 122.018 140.99C122.202 140.738 122.406 140.52 122.63 140.336C122.854 140.152 123.092 140.008 123.344 139.904C123.6 139.8 123.864 139.748 124.136 139.748C124.412 139.748 124.662 139.798 124.886 139.898C125.11 139.998 125.306 140.136 125.474 140.312L125.876 137.084H127.328Z" fill="#163D35"/>
</svg>
