<svg width="171" height="171" viewBox="0 0 171 171" fill="none" xmlns="http://www.w3.org/2000/svg">
<path d="M170.14 144.32V25.82C155.88 25.82 144.32 14.26 144.32 0H25.82C25.82 14.26 14.26 25.82 0 25.82V144.32C14.26 144.32 25.82 155.88 25.82 170.14H144.32C144.32 155.88 155.88 144.32 170.14 144.32Z" fill="#C799D0"/>
<path d="M140.41 163.621H29.8398V161.861C29.8398 149.971 20.1698 140.291 8.26976 140.291H6.50977V29.7206H8.26976C20.1598 29.7206 29.8398 20.0406 29.8398 8.15061V6.39062H140.42V8.15061C140.42 20.0406 150.1 29.7206 161.99 29.7206H163.75V140.301H161.99C150.1 140.301 140.42 149.971 140.42 161.871V163.621H140.41Z" stroke="#8F5F98" stroke-miterlimit="10"/>
<path d="M84.8398 21V68.51" stroke="#8F5F98" stroke-miterlimit="10" stroke-linecap="round" stroke-linejoin="round"/>
<path d="M84.8199 21C84.8199 21 73.3899 31.5 72.3199 46.27C71.2499 61.04 84.8199 63.89 84.8199 63.89" stroke="#8F5F98" stroke-miterlimit="10" stroke-linecap="round" stroke-linejoin="round"/>
<path d="M84.8398 21C84.8398 21 96.2698 31.5 97.3398 46.27C98.4098 61.04 84.8398 63.89 84.8398 63.89" stroke="#8F5F98" stroke-miterlimit="10" stroke-linecap="round" stroke-linejoin="round"/>
<path d="M82.04 24L84.84 26.8L87.63 24.01" stroke="#8F5F98" stroke-miterlimit="10" stroke-linecap="round" stroke-linejoin="round"/>
<path d="M78.0498 29.5703L84.8499 36.3703L91.6098 29.6003" stroke="#8F5F98" stroke-miterlimit="10" stroke-linecap="round" stroke-linejoin="round"/>
<path d="M75.1699 36.0312L84.8499 45.7113L94.4999 36.0713" stroke="#8F5F98" stroke-miterlimit="10" stroke-linecap="round" stroke-linejoin="round"/>
<path d="M72.7598 43.4297L84.8597 55.5297L96.8998 43.4797" stroke="#8F5F98" stroke-miterlimit="10" stroke-linecap="round" stroke-linejoin="round"/>
<path d="M115.76 31.1719V68.1919" stroke="#8F5F98" stroke-miterlimit="10" stroke-linecap="round" stroke-linejoin="round"/>
<path d="M115.75 31.1719C115.75 31.1719 106.84 39.3519 106.01 50.8519C105.18 62.3619 115.75 64.5719 115.75 64.5719" stroke="#8F5F98" stroke-miterlimit="10" stroke-linecap="round" stroke-linejoin="round"/>
<path d="M115.76 31.1719C115.76 31.1719 124.67 39.3519 125.5 50.8519C126.33 62.3619 115.76 64.5719 115.76 64.5719" stroke="#8F5F98" stroke-miterlimit="10" stroke-linecap="round" stroke-linejoin="round"/>
<path d="M113.59 33.5117L115.77 35.6917L117.94 33.5217" stroke="#8F5F98" stroke-miterlimit="10" stroke-linecap="round" stroke-linejoin="round"/>
<path d="M110.48 37.8516L115.77 43.1416L121.04 37.8716" stroke="#8F5F98" stroke-miterlimit="10" stroke-linecap="round" stroke-linejoin="round"/>
<path d="M108.23 42.8828L115.78 50.4228L123.29 42.9128" stroke="#8F5F98" stroke-miterlimit="10" stroke-linecap="round" stroke-linejoin="round"/>
<path d="M106.36 48.6406L115.78 58.0706L125.17 48.6806" stroke="#8F5F98" stroke-miterlimit="10" stroke-linecap="round" stroke-linejoin="round"/>
<path d="M53.48 31.1719V68.1919" stroke="#8F5F98" stroke-miterlimit="10" stroke-linecap="round" stroke-linejoin="round"/>
<path d="M53.47 31.1719C53.47 31.1719 44.56 39.3519 43.73 50.8519C42.9 62.3619 53.47 64.5719 53.47 64.5719" stroke="#8F5F98" stroke-miterlimit="10" stroke-linecap="round" stroke-linejoin="round"/>
<path d="M53.48 31.1719C53.48 31.1719 62.39 39.3519 63.22 50.8519C64.05 62.3619 53.48 64.5719 53.48 64.5719" stroke="#8F5F98" stroke-miterlimit="10" stroke-linecap="round" stroke-linejoin="round"/>
<path d="M51.3101 33.5117L53.4901 35.6917L55.6601 33.5217" stroke="#8F5F98" stroke-miterlimit="10" stroke-linecap="round" stroke-linejoin="round"/>
<path d="M48.2002 37.8516L53.4902 43.1416L58.7602 37.8716" stroke="#8F5F98" stroke-miterlimit="10" stroke-linecap="round" stroke-linejoin="round"/>
<path d="M45.9502 42.8828L53.5002 50.4228L61.0102 42.9128" stroke="#8F5F98" stroke-miterlimit="10" stroke-linecap="round" stroke-linejoin="round"/>
<path d="M44.0801 48.6406L53.5001 58.0706L62.8901 48.6806" stroke="#8F5F98" stroke-miterlimit="10" stroke-linecap="round" stroke-linejoin="round"/>
<path d="M43 68.5117H126.61" stroke="#8F5F98" stroke-miterlimit="10" stroke-linecap="round" stroke-linejoin="round"/>
<path d="M51.6802 72.4492H117.94" stroke="#8F5F98" stroke-miterlimit="10" stroke-linecap="round" stroke-linejoin="round"/>
<path d="M61.3799 76.3906H108.23" stroke="#8F5F98" stroke-miterlimit="10" stroke-linecap="round" stroke-linejoin="round"/>
<path d="M94.1598 137.307C92.4338 131.564 84.0003 131.564 82.2743 137.307C81.9717 138.321 81.8163 139.524 81.9062 140.971C82.3152 147.998 88.2212 154.992 88.2212 154.992C88.2212 154.992 94.1189 147.998 94.5361 140.971C94.6097 139.524 94.4625 138.321 94.1598 137.307Z" fill="#8F5F98"/>
<path d="M109.694 146.689C112.532 141.405 106.569 135.45 101.293 138.288C100.361 138.787 99.4037 139.54 98.4384 140.619C93.7595 145.879 92.9824 155 92.9824 155C92.9824 155 102.103 154.223 107.363 149.544C108.451 148.578 109.195 147.621 109.694 146.689Z" fill="#8F5F98"/>
<path d="M66.7326 146.689C63.8942 141.405 69.8574 135.45 75.1335 138.288C76.066 138.787 77.023 139.54 77.9883 140.619C82.6672 145.879 83.4443 155 83.4443 155C83.4443 155 74.3236 154.223 69.0639 149.544C67.9842 148.578 67.2316 147.621 66.7326 146.689Z" fill="#8F5F98"/>
<path d="M24.46 108V93.54H29.45C30.3967 93.54 31.2033 93.63 31.87 93.81C32.5433 93.99 33.0933 94.2467 33.52 94.58C33.9533 94.9133 34.27 95.3167 34.47 95.79C34.67 96.2633 34.77 96.7967 34.77 97.39C34.77 97.73 34.72 98.0567 34.62 98.37C34.52 98.6767 34.3633 98.9667 34.15 99.24C33.9433 99.5067 33.6767 99.75 33.35 99.97C33.03 100.19 32.6467 100.377 32.2 100.53C34.1867 100.977 35.18 102.05 35.18 103.75C35.18 104.363 35.0633 104.93 34.83 105.45C34.5967 105.97 34.2567 106.42 33.81 106.8C33.3633 107.173 32.8133 107.467 32.16 107.68C31.5067 107.893 30.76 108 29.92 108H24.46ZM27.15 101.66V105.9H29.88C30.38 105.9 30.7967 105.84 31.13 105.72C31.47 105.6 31.74 105.44 31.94 105.24C32.1467 105.04 32.2933 104.807 32.38 104.54C32.4733 104.273 32.52 103.99 32.52 103.69C32.52 103.377 32.47 103.097 32.37 102.85C32.27 102.597 32.1133 102.383 31.9 102.21C31.6867 102.03 31.4133 101.893 31.08 101.8C30.7467 101.707 30.3433 101.66 29.87 101.66H27.15ZM27.15 99.8H29.3C30.2133 99.8 30.9067 99.6333 31.38 99.3C31.8533 98.9667 32.09 98.4367 32.09 97.71C32.09 96.9567 31.8767 96.42 31.45 96.1C31.0233 95.78 30.3567 95.62 29.45 95.62H27.15V99.8ZM46.6073 93.54V95.68H40.1973V99.69H45.2473V101.76H40.1973V105.85H46.6073V108H37.4873V93.54H46.6073ZM56.6827 96.17C56.6093 96.3167 56.5227 96.42 56.4227 96.48C56.3293 96.54 56.216 96.57 56.0827 96.57C55.9493 96.57 55.7993 96.52 55.6327 96.42C55.466 96.3133 55.2693 96.1967 55.0427 96.07C54.816 95.9433 54.5493 95.83 54.2427 95.73C53.9427 95.6233 53.586 95.57 53.1727 95.57C52.7993 95.57 52.4727 95.6167 52.1927 95.71C51.9193 95.7967 51.686 95.92 51.4927 96.08C51.306 96.24 51.166 96.4333 51.0727 96.66C50.9793 96.88 50.9327 97.1233 50.9327 97.39C50.9327 97.73 51.026 98.0133 51.2127 98.24C51.406 98.4667 51.6593 98.66 51.9727 98.82C52.286 98.98 52.6427 99.1233 53.0427 99.25C53.4427 99.3767 53.8493 99.5133 54.2627 99.66C54.6827 99.8 55.0927 99.9667 55.4927 100.16C55.8927 100.347 56.2493 100.587 56.5627 100.88C56.876 101.167 57.126 101.52 57.3127 101.94C57.506 102.36 57.6027 102.87 57.6027 103.47C57.6027 104.123 57.4893 104.737 57.2627 105.31C57.0427 105.877 56.716 106.373 56.2827 106.8C55.856 107.22 55.3327 107.553 54.7127 107.8C54.0927 108.04 53.3827 108.16 52.5827 108.16C52.1227 108.16 51.6693 108.113 51.2227 108.02C50.776 107.933 50.346 107.807 49.9327 107.64C49.526 107.473 49.1427 107.273 48.7827 107.04C48.4293 106.807 48.1127 106.547 47.8327 106.26L48.6127 104.97C48.686 104.877 48.7727 104.8 48.8727 104.74C48.9793 104.673 49.096 104.64 49.2227 104.64C49.3893 104.64 49.5693 104.71 49.7627 104.85C49.956 104.983 50.1827 105.133 50.4427 105.3C50.7093 105.467 51.0193 105.62 51.3727 105.76C51.7327 105.893 52.1627 105.96 52.6627 105.96C53.4293 105.96 54.0227 105.78 54.4427 105.42C54.8627 105.053 55.0727 104.53 55.0727 103.85C55.0727 103.47 54.976 103.16 54.7827 102.92C54.596 102.68 54.346 102.48 54.0327 102.32C53.7193 102.153 53.3627 102.013 52.9627 101.9C52.5627 101.787 52.156 101.663 51.7427 101.53C51.3293 101.397 50.9227 101.237 50.5227 101.05C50.1227 100.863 49.766 100.62 49.4527 100.32C49.1393 100.02 48.886 99.6467 48.6927 99.2C48.506 98.7467 48.4127 98.19 48.4127 97.53C48.4127 97.0033 48.516 96.49 48.7227 95.99C48.936 95.49 49.2427 95.0467 49.6427 94.66C50.0493 94.2733 50.546 93.9633 51.1327 93.73C51.7193 93.4967 52.3893 93.38 53.1427 93.38C53.996 93.38 54.7827 93.5133 55.5027 93.78C56.2227 94.0467 56.836 94.42 57.3427 94.9L56.6827 96.17ZM69.8453 93.54V95.75H65.4953V108H62.8053V95.75H58.4353V93.54H69.8453ZM85.357 104.59C85.5037 104.59 85.6304 104.647 85.737 104.76L86.797 105.91C86.2104 106.637 85.487 107.193 84.627 107.58C83.7737 107.967 82.747 108.16 81.547 108.16C80.4737 108.16 79.507 107.977 78.647 107.61C77.7937 107.243 77.0637 106.733 76.457 106.08C75.8504 105.427 75.3837 104.647 75.057 103.74C74.737 102.833 74.577 101.843 74.577 100.77C74.577 99.6833 74.757 98.69 75.117 97.79C75.477 96.8833 75.9837 96.1033 76.637 95.45C77.2904 94.7967 78.0704 94.29 78.977 93.93C79.8904 93.5633 80.897 93.38 81.997 93.38C83.0704 93.38 84.007 93.5533 84.807 93.9C85.6137 94.24 86.3037 94.6933 86.877 95.26L85.977 96.51C85.9237 96.59 85.8537 96.66 85.767 96.72C85.687 96.78 85.5737 96.81 85.427 96.81C85.2737 96.81 85.117 96.75 84.957 96.63C84.797 96.51 84.5937 96.38 84.347 96.24C84.1004 96.1 83.787 95.97 83.407 95.85C83.0337 95.73 82.557 95.67 81.977 95.67C81.297 95.67 80.6704 95.79 80.097 96.03C79.5304 96.2633 79.0404 96.6 78.627 97.04C78.2204 97.48 77.9004 98.0167 77.667 98.65C77.4404 99.2767 77.327 99.9833 77.327 100.77C77.327 101.583 77.4404 102.307 77.667 102.94C77.9004 103.573 78.2137 104.107 78.607 104.54C79.0004 104.973 79.4637 105.307 79.997 105.54C80.5304 105.767 81.1037 105.88 81.717 105.88C82.0837 105.88 82.4137 105.86 82.707 105.82C83.007 105.78 83.2804 105.717 83.527 105.63C83.7804 105.543 84.017 105.433 84.237 105.3C84.4637 105.16 84.687 104.99 84.907 104.79C84.9737 104.73 85.0437 104.683 85.117 104.65C85.1904 104.61 85.2704 104.59 85.357 104.59ZM101.035 108H98.325V101.68H91.545V108H88.835V93.54H91.545V99.76H98.325V93.54H101.035V108ZM117.822 100.77C117.822 101.83 117.646 102.813 117.292 103.72C116.939 104.62 116.442 105.4 115.802 106.06C115.162 106.72 114.392 107.237 113.492 107.61C112.592 107.977 111.596 108.16 110.502 108.16C109.409 108.16 108.409 107.977 107.502 107.61C106.602 107.237 105.829 106.72 105.182 106.06C104.542 105.4 104.046 104.62 103.692 103.72C103.339 102.813 103.162 101.83 103.162 100.77C103.162 99.71 103.339 98.73 103.692 97.83C104.046 96.9233 104.542 96.14 105.182 95.48C105.829 94.82 106.602 94.3067 107.502 93.94C108.409 93.5667 109.409 93.38 110.502 93.38C111.596 93.38 112.592 93.5667 113.492 93.94C114.392 94.3133 115.162 94.83 115.802 95.49C116.442 96.1433 116.939 96.9233 117.292 97.83C117.646 98.73 117.822 99.71 117.822 100.77ZM115.062 100.77C115.062 99.9767 114.956 99.2667 114.742 98.64C114.536 98.0067 114.236 97.47 113.842 97.03C113.449 96.59 112.969 96.2533 112.402 96.02C111.842 95.7867 111.209 95.67 110.502 95.67C109.796 95.67 109.159 95.7867 108.592 96.02C108.026 96.2533 107.542 96.59 107.142 97.03C106.749 97.47 106.446 98.0067 106.232 98.64C106.019 99.2667 105.912 99.9767 105.912 100.77C105.912 101.563 106.019 102.277 106.232 102.91C106.446 103.537 106.749 104.07 107.142 104.51C107.542 104.943 108.026 105.277 108.592 105.51C109.159 105.743 109.796 105.86 110.502 105.86C111.209 105.86 111.842 105.743 112.402 105.51C112.969 105.277 113.449 104.943 113.842 104.51C114.236 104.07 114.536 103.537 114.742 102.91C114.956 102.277 115.062 101.563 115.062 100.77ZM122.978 108H120.278V93.54H122.978V108ZM136.177 104.59C136.324 104.59 136.451 104.647 136.557 104.76L137.617 105.91C137.031 106.637 136.307 107.193 135.447 107.58C134.594 107.967 133.567 108.16 132.367 108.16C131.294 108.16 130.327 107.977 129.467 107.61C128.614 107.243 127.884 106.733 127.277 106.08C126.671 105.427 126.204 104.647 125.877 103.74C125.557 102.833 125.397 101.843 125.397 100.77C125.397 99.6833 125.577 98.69 125.937 97.79C126.297 96.8833 126.804 96.1033 127.457 95.45C128.111 94.7967 128.891 94.29 129.797 93.93C130.711 93.5633 131.717 93.38 132.817 93.38C133.891 93.38 134.827 93.5533 135.627 93.9C136.434 94.24 137.124 94.6933 137.697 95.26L136.797 96.51C136.744 96.59 136.674 96.66 136.587 96.72C136.507 96.78 136.394 96.81 136.247 96.81C136.094 96.81 135.937 96.75 135.777 96.63C135.617 96.51 135.414 96.38 135.167 96.24C134.921 96.1 134.607 95.97 134.227 95.85C133.854 95.73 133.377 95.67 132.797 95.67C132.117 95.67 131.491 95.79 130.917 96.03C130.351 96.2633 129.861 96.6 129.447 97.04C129.041 97.48 128.721 98.0167 128.487 98.65C128.261 99.2767 128.147 99.9833 128.147 100.77C128.147 101.583 128.261 102.307 128.487 102.94C128.721 103.573 129.034 104.107 129.427 104.54C129.821 104.973 130.284 105.307 130.817 105.54C131.351 105.767 131.924 105.88 132.537 105.88C132.904 105.88 133.234 105.86 133.527 105.82C133.827 105.78 134.101 105.717 134.347 105.63C134.601 105.543 134.837 105.433 135.057 105.3C135.284 105.16 135.507 104.99 135.727 104.79C135.794 104.73 135.864 104.683 135.937 104.65C136.011 104.61 136.091 104.59 136.177 104.59ZM148.775 93.54V95.68H142.365V99.69H147.415V101.76H142.365V105.85H148.775V108H139.655V93.54H148.775Z" fill="#8F5F98"/>
<path d="M78.606 114.306C78.97 114.306 79.31 114.36 79.626 114.468C79.942 114.576 80.214 114.734 80.442 114.942C80.674 115.146 80.856 115.396 80.988 115.692C81.12 115.988 81.186 116.324 81.186 116.7C81.186 117.02 81.138 117.316 81.042 117.588C80.946 117.86 80.816 118.122 80.652 118.374C80.488 118.622 80.298 118.864 80.082 119.1C79.87 119.332 79.644 119.57 79.404 119.814L77.142 122.13C77.302 122.086 77.464 122.052 77.628 122.028C77.792 122 77.95 121.986 78.102 121.986H80.982C81.098 121.986 81.19 122.02 81.258 122.088C81.326 122.156 81.36 122.244 81.36 122.352V123H75.624V122.634C75.624 122.558 75.638 122.48 75.666 122.4C75.698 122.32 75.748 122.246 75.816 122.178L78.57 119.412C78.798 119.18 79.006 118.958 79.194 118.746C79.382 118.53 79.542 118.314 79.674 118.098C79.81 117.882 79.914 117.664 79.986 117.444C80.058 117.22 80.094 116.982 80.094 116.73C80.094 116.478 80.054 116.258 79.974 116.07C79.894 115.878 79.784 115.72 79.644 115.596C79.504 115.472 79.34 115.38 79.152 115.32C78.964 115.256 78.762 115.224 78.546 115.224C78.33 115.224 78.13 115.256 77.946 115.32C77.762 115.384 77.598 115.474 77.454 115.59C77.314 115.702 77.194 115.836 77.094 115.992C76.998 116.148 76.93 116.32 76.89 116.508C76.858 116.624 76.81 116.708 76.746 116.76C76.682 116.812 76.598 116.838 76.494 116.838C76.474 116.838 76.452 116.838 76.428 116.838C76.408 116.834 76.384 116.83 76.356 116.826L75.798 116.73C75.854 116.338 75.962 115.992 76.122 115.692C76.282 115.388 76.484 115.134 76.728 114.93C76.976 114.726 77.258 114.572 77.574 114.468C77.894 114.36 78.238 114.306 78.606 114.306ZM88.5609 118.704C88.5609 119.456 88.4789 120.108 88.3149 120.66C88.1549 121.208 87.9349 121.662 87.6549 122.022C87.3749 122.382 87.0429 122.65 86.6589 122.826C86.2789 123.002 85.8709 123.09 85.4349 123.09C84.9949 123.09 84.5849 123.002 84.2049 122.826C83.8289 122.65 83.5009 122.382 83.2209 122.022C82.9409 121.662 82.7209 121.208 82.5609 120.66C82.4009 120.108 82.3209 119.456 82.3209 118.704C82.3209 117.952 82.4009 117.3 82.5609 116.748C82.7209 116.196 82.9409 115.74 83.2209 115.38C83.5009 115.016 83.8289 114.746 84.2049 114.57C84.5849 114.394 84.9949 114.306 85.4349 114.306C85.8709 114.306 86.2789 114.394 86.6589 114.57C87.0429 114.746 87.3749 115.016 87.6549 115.38C87.9349 115.74 88.1549 116.196 88.3149 116.748C88.4789 117.3 88.5609 117.952 88.5609 118.704ZM87.4509 118.704C87.4509 118.048 87.3949 117.498 87.2829 117.054C87.1749 116.606 87.0269 116.246 86.8389 115.974C86.6549 115.702 86.4409 115.508 86.1969 115.392C85.9529 115.272 85.6989 115.212 85.4349 115.212C85.1709 115.212 84.9169 115.272 84.6729 115.392C84.4289 115.508 84.2149 115.702 84.0309 115.974C83.8469 116.246 83.6989 116.606 83.5869 117.054C83.4789 117.498 83.4249 118.048 83.4249 118.704C83.4249 119.36 83.4789 119.91 83.5869 120.354C83.6989 120.798 83.8469 121.156 84.0309 121.428C84.2149 121.7 84.4289 121.896 84.6729 122.016C84.9169 122.132 85.1709 122.19 85.4349 122.19C85.6989 122.19 85.9529 122.132 86.1969 122.016C86.4409 121.896 86.6549 121.7 86.8389 121.428C87.0269 121.156 87.1749 120.798 87.2829 120.354C87.3949 119.91 87.4509 119.36 87.4509 118.704ZM92.5279 114.306C92.8919 114.306 93.2319 114.36 93.5479 114.468C93.8639 114.576 94.1359 114.734 94.3639 114.942C94.5959 115.146 94.7779 115.396 94.9099 115.692C95.0419 115.988 95.1079 116.324 95.1079 116.7C95.1079 117.02 95.0599 117.316 94.9639 117.588C94.8679 117.86 94.7379 118.122 94.5739 118.374C94.4099 118.622 94.2199 118.864 94.0039 119.1C93.7919 119.332 93.5659 119.57 93.3259 119.814L91.0639 122.13C91.2239 122.086 91.3859 122.052 91.5499 122.028C91.7139 122 91.8719 121.986 92.0239 121.986H94.9039C95.0199 121.986 95.1119 122.02 95.1799 122.088C95.2479 122.156 95.2819 122.244 95.2819 122.352V123H89.5459V122.634C89.5459 122.558 89.5599 122.48 89.5879 122.4C89.6199 122.32 89.6699 122.246 89.7379 122.178L92.4919 119.412C92.7199 119.18 92.9279 118.958 93.1159 118.746C93.3039 118.53 93.4639 118.314 93.5959 118.098C93.7319 117.882 93.8359 117.664 93.9079 117.444C93.9799 117.22 94.0159 116.982 94.0159 116.73C94.0159 116.478 93.9759 116.258 93.8959 116.07C93.8159 115.878 93.7059 115.72 93.5659 115.596C93.4259 115.472 93.2619 115.38 93.0739 115.32C92.8859 115.256 92.6839 115.224 92.4679 115.224C92.2519 115.224 92.0519 115.256 91.8679 115.32C91.6839 115.384 91.5199 115.474 91.3759 115.59C91.2359 115.702 91.1159 115.836 91.0159 115.992C90.9199 116.148 90.8519 116.32 90.8119 116.508C90.7799 116.624 90.7319 116.708 90.6679 116.76C90.6039 116.812 90.5199 116.838 90.4159 116.838C90.3959 116.838 90.3739 116.838 90.3499 116.838C90.3299 116.834 90.3059 116.83 90.2779 116.826L89.7199 116.73C89.7759 116.338 89.8839 115.992 90.0439 115.692C90.2039 115.388 90.4059 115.134 90.6499 114.93C90.8979 114.726 91.1799 114.572 91.4959 114.468C91.8159 114.36 92.1599 114.306 92.5279 114.306ZM102.483 118.704C102.483 119.456 102.401 120.108 102.237 120.66C102.077 121.208 101.857 121.662 101.577 122.022C101.297 122.382 100.965 122.65 100.581 122.826C100.201 123.002 99.7928 123.09 99.3568 123.09C98.9168 123.09 98.5068 123.002 98.1268 122.826C97.7508 122.65 97.4228 122.382 97.1428 122.022C96.8628 121.662 96.6428 121.208 96.4828 120.66C96.3228 120.108 96.2428 119.456 96.2428 118.704C96.2428 117.952 96.3228 117.3 96.4828 116.748C96.6428 116.196 96.8628 115.74 97.1428 115.38C97.4228 115.016 97.7508 114.746 98.1268 114.57C98.5068 114.394 98.9168 114.306 99.3568 114.306C99.7928 114.306 100.201 114.394 100.581 114.57C100.965 114.746 101.297 115.016 101.577 115.38C101.857 115.74 102.077 116.196 102.237 116.748C102.401 117.3 102.483 117.952 102.483 118.704ZM101.373 118.704C101.373 118.048 101.317 117.498 101.205 117.054C101.097 116.606 100.949 116.246 100.761 115.974C100.577 115.702 100.363 115.508 100.119 115.392C99.8748 115.272 99.6208 115.212 99.3568 115.212C99.0928 115.212 98.8388 115.272 98.5948 115.392C98.3508 115.508 98.1368 115.702 97.9528 115.974C97.7688 116.246 97.6208 116.606 97.5088 117.054C97.4008 117.498 97.3468 118.048 97.3468 118.704C97.3468 119.36 97.4008 119.91 97.5088 120.354C97.6208 120.798 97.7688 121.156 97.9528 121.428C98.1368 121.7 98.3508 121.896 98.5948 122.016C98.8388 122.132 99.0928 122.19 99.3568 122.19C99.6208 122.19 99.8748 122.132 100.119 122.016C100.363 121.896 100.577 121.7 100.761 121.428C100.949 121.156 101.097 120.798 101.205 120.354C101.317 119.91 101.373 119.36 101.373 118.704Z" fill="#8F5F98"/>
</svg>
