<svg width="184" height="188" viewBox="0 0 184 188" fill="none" xmlns="http://www.w3.org/2000/svg">
<path d="M91.5725 187.37C105.812 186.48 108.332 183.39 122.852 179.63C137.372 175.87 154.413 184.5 167.812 174.76C181.222 165.03 167.252 137.41 176.192 122.15C184.142 108.58 183.252 98.69 182.962 96.66C183.252 94.63 184.142 84.74 176.192 71.17C167.252 55.91 181.222 29.34 167.812 19.61C154.403 9.88 137.372 18.5 122.852 14.74C108.332 10.98 105.822 7.88 91.5725 7C77.3325 7.88 74.8125 10.98 60.2925 14.74C45.7725 18.5 28.7325 9.87 15.3325 19.61C1.9225 29.34 15.8925 55.91 6.95249 71.17C-0.997509 84.74 -0.107498 94.63 0.182502 96.66C-0.107498 98.69 -0.997509 108.58 6.95249 122.15C15.8925 137.41 1.9225 165.03 15.3325 174.76C28.7425 184.49 45.7725 175.87 60.2925 179.63C74.8225 183.39 77.3325 186.48 91.5725 187.37Z" fill="#96D3E3"/>
<path d="M91.5727 183.219L91.4427 183.209C82.8227 182.669 78.6627 181.239 73.3827 179.419C70.4927 178.429 67.2127 177.299 62.5827 176.099C60.3227 175.519 57.8627 175.239 54.8327 175.239C52.1327 175.239 49.3027 175.459 46.5627 175.679C43.7327 175.899 40.8127 176.129 37.9427 176.129C30.7727 176.129 25.5327 174.649 20.9627 171.329C13.4027 165.839 14.1827 155.519 14.9327 145.539C15.5327 137.599 16.1527 128.529 12.7627 122.729C5.6027 110.509 5.9327 101.399 6.2927 98.4786C5.9327 95.5486 5.5927 86.4486 12.7627 74.2286C16.1527 68.4386 15.5327 60.4186 14.9327 52.4786C14.1827 42.4986 13.4027 32.1786 20.9627 26.6886C25.5327 23.3686 30.7727 21.8886 37.9427 21.8886C40.8127 21.8886 43.7327 22.1186 46.5627 22.3386C49.3027 22.5586 52.1327 22.7786 54.8327 22.7786C57.8227 22.7786 60.3527 22.4986 62.5827 21.9186C67.2227 20.7186 70.5027 19.5886 73.3927 18.5986C78.6627 16.7786 82.8327 15.3486 91.4427 14.8186L91.5727 14.8086L91.7027 14.8186C100.323 15.3486 104.483 16.7886 109.763 18.5986C112.653 19.5886 115.923 20.7186 120.563 21.9186C122.823 22.5086 125.283 22.7786 128.313 22.7786C131.013 22.7786 133.843 22.5586 136.583 22.3386C139.413 22.1186 142.333 21.8886 145.203 21.8886C152.373 21.8886 157.613 23.3686 162.183 26.6886C169.743 32.1786 168.963 42.4986 168.213 52.4786C167.613 60.4186 166.993 68.4386 170.383 74.2286C177.543 86.4586 177.213 95.5586 176.853 98.4786C177.213 101.409 177.543 110.509 170.383 122.729C166.993 128.529 167.613 137.589 168.213 145.529C168.963 155.509 169.743 165.829 162.183 171.319C157.613 174.639 152.373 176.119 145.203 176.119C142.333 176.119 139.403 175.889 136.583 175.669C133.843 175.449 131.013 175.229 128.313 175.229C125.323 175.229 122.793 175.509 120.563 176.089C115.923 177.289 112.653 178.419 109.763 179.409C104.483 181.229 100.323 182.659 91.7027 183.199L91.5727 183.219Z" stroke="#163D35" stroke-miterlimit="10"/>
<path d="M33.4082 123.844C33.4082 123.844 85.7982 108.194 163.478 112.874C163.478 112.874 168.888 113.354 166.708 114.204C164.528 115.054 91.4282 109.394 32.7082 128.564C32.7082 128.564 27.3582 130.694 26.3682 129.294C25.5582 128.154 25.3982 126.734 33.4082 123.844Z" fill="#3A4755" fill-opacity="0.38"/>
<path d="M49.8999 35.8614C52.3961 35.6324 59.2426 35.3098 65.5505 36.7455C71.9107 38.1871 77.7223 41.3837 80.0894 42.2573C84.8069 43.9885 89.3637 46.1726 94.1785 47.5986C105.297 50.8982 117.617 49.9512 128.091 44.9841C131.36 43.4348 134.493 41.479 136.895 38.7749" stroke="#3A4755" stroke-width="1.3504" stroke-miterlimit="10" stroke-linecap="round" stroke-linejoin="round"/>
<path d="M80.5865 44.4913C76.9394 44.1475 74.6733 44.4878 71.1861 45.6153C69.1432 46.2761 65.3836 48.0541 63.6393 49.3088C60.5876 51.502 58.7879 54.4955 55.2739 55.8259C60.2678 56.4688 65.4596 56.2694 70.1463 54.44C74.833 52.6106 78.8818 49.2281 80.5865 44.4913Z" stroke="#3A4755" stroke-width="1.3504" stroke-miterlimit="10" stroke-linecap="round" stroke-linejoin="round"/>
<path d="M88.5298 43.9091C83.7597 42.1558 80.9154 36.8095 79.4136 33.9185C77.9386 31.0795 76.8489 27.9837 74.7554 25.5547C76.8111 26.6056 78.8733 27.6531 80.9291 28.704C82.5046 29.5097 84.0998 30.3217 85.4382 31.4801C88.7493 34.3243 89.8994 39.7649 88.5298 43.9091Z" stroke="#3A4755" stroke-width="1.3504" stroke-miterlimit="10" stroke-linecap="round" stroke-linejoin="round"/>
<path d="M93.8226 49.1086C89.1811 48.925 84.5983 50.4622 80.5545 52.7405C76.5043 55.0221 72.9209 58.0163 69.3569 61.0004C74.2523 61.6119 79.3526 61.4105 83.9315 59.5793C88.5104 57.748 92.5233 54.1209 94.0555 49.4322" stroke="#3A4755" stroke-width="1.3504" stroke-miterlimit="10" stroke-linecap="round" stroke-linejoin="round"/>
<path d="M105.917 50.7949C102.206 51.8241 98.794 53.9404 96.172 56.7585C93.55 59.5767 91.4763 62.8514 89.4219 66.0998C93.4401 65.3475 97.4132 63.9033 100.564 61.297C103.715 58.6908 105.967 54.8224 105.994 50.7383" stroke="#3A4755" stroke-width="1.3504" stroke-miterlimit="10" stroke-linecap="round" stroke-linejoin="round"/>
<path d="M113.568 47.6393C109.224 47.9679 104.417 45.8884 100.955 43.2455C97.4898 40.5961 94.5812 37.3055 91.2573 34.4844C93.45 35.0206 95.6427 35.5567 97.8418 36.0896C99.497 36.4924 101.162 36.8983 102.764 37.4684C107.549 39.1562 111.376 42.696 113.568 47.6393Z" stroke="#3A4755" stroke-width="1.3504" stroke-miterlimit="10" stroke-linecap="round" stroke-linejoin="round"/>
<path d="M77.005 40.9841C75.6882 39.4856 74.3779 37.9839 73.0611 36.4854C71.6448 34.8739 70.1657 33.2045 68.1942 32.3485C65.4045 31.1342 62.185 31.7615 59.2626 32.6136C56.0895 33.5377 52.9915 34.7025 49.8936 35.8673C53.5989 37.1512 57.3108 38.4317 61.0161 39.7156C62.726 40.3039 64.449 40.9019 66.2515 41.0806C68.0278 41.2564 69.815 41.0237 71.5825 40.7847C73.2424 40.5602 75.3674 40.4242 77.005 40.9841Z" stroke="#3A4755" stroke-width="1.3504" stroke-miterlimit="10" stroke-linecap="round" stroke-linejoin="round"/>
<path d="M55.2739 55.8294C57.3936 55.54 66.1701 52.9378 76.0698 47.3217C77.9344 46.2679 80.6701 44.3859 83.1666 43.4414" stroke="#3A4755" stroke-width="1.3504" stroke-miterlimit="10" stroke-linecap="round" stroke-linejoin="round"/>
<path d="M74.7617 25.5508C83.23 32.2504 87.7862 42.5332 89.5079 45.993" stroke="#3A4755" stroke-width="1.3504" stroke-miterlimit="10" stroke-linecap="round" stroke-linejoin="round"/>
<path d="M95.2261 43.3281C98.4891 45.2517 99.2779 47.0969 102.727 49.2858" stroke="#3A4755" stroke-width="1.3504" stroke-miterlimit="10" stroke-linecap="round" stroke-linejoin="round"/>
<path d="M69.3574 61.0002C70.5296 60.707 77.1758 58.3257 81.0946 56.2353C84.2186 54.5638 91.5608 50.4745 92.089 50.1441C93.1582 49.4765 95.41 48.5516 96.6312 48.2578" stroke="#3A4755" stroke-width="1.3504" stroke-miterlimit="10" stroke-linecap="round" stroke-linejoin="round"/>
<path d="M91.2573 34.4844C93.7314 35.5493 106.053 43.3414 107.838 44.6637C109.623 45.9861 114.002 48.0811 116.787 48.665" stroke="#3A4755" stroke-width="1.3504" stroke-miterlimit="10" stroke-linecap="round" stroke-linejoin="round"/>
<path d="M118.286 39.4375C119.142 39.9326 120.067 40.5149 121.102 41.1807C124.229 43.2074 127.611 44.7569 131.387 43.2336" stroke="#3A4755" stroke-width="1.3504" stroke-miterlimit="10" stroke-linecap="round" stroke-linejoin="round"/>
<path d="M89.8193 65.7869C97.9049 60.59 104.109 53.1835 104.565 52.6025C105.378 51.5822 106.149 50.1313 107.311 49.5312" stroke="#3A4755" stroke-width="1.3504" stroke-miterlimit="10" stroke-linecap="round" stroke-linejoin="round"/>
<path d="M119.531 40.0677C119.531 40.0677 118.216 42.3752 115.196 40.5399C112.176 38.7047 111.183 36.7348 111.716 36.3193C112.256 35.9006 120.471 35.9814 119.531 40.0677Z" stroke="#3A4755" stroke-width="1.3504" stroke-miterlimit="10" stroke-linecap="round" stroke-linejoin="round"/>
<path d="M63.2148 43.9719C63.2148 43.9719 63.1912 46.6315 59.6611 46.4985C56.1246 46.3689 54.3016 45.132 54.5645 44.5111C54.8339 43.8868 62.0475 39.9462 63.2148 43.9719Z" stroke="#3A4755" stroke-width="1.3504" stroke-miterlimit="10" stroke-linecap="round" stroke-linejoin="round"/>
<path d="M96.3127 43.9808C96.3127 43.9808 95.4293 45.1195 93.943 43.8978C92.4666 42.6791 92.0857 41.544 92.4035 41.3634C92.7309 41.1696 97.1372 41.8529 96.3127 43.9808Z" stroke="#3A4755" stroke-width="1.3504" stroke-miterlimit="10" stroke-linecap="round" stroke-linejoin="round"/>
<path d="M113.323 55.5341C116.274 53.1625 117.251 49.1639 121.681 47.5078" stroke="#3A4755" stroke-width="1.3504" stroke-miterlimit="10" stroke-linecap="round" stroke-linejoin="round"/>
<path d="M114.678 54.2068C114.678 54.2068 116.043 55.6393 113.96 57.5126C112.533 58.7926 110.184 58.9707 110.071 58.6258C109.959 58.2647 111.424 52.7307 114.678 54.2068Z" stroke="#3A4755" stroke-width="1.3504" stroke-miterlimit="10" stroke-linecap="round" stroke-linejoin="round"/>
<path d="M61.606 44.2618C61.606 44.2618 63.2262 44.2469 67.3798 43.3589C72.1914 42.3283 76.7757 41.3986 80.0866 42.2533" stroke="#3A4755" stroke-width="1.3504" stroke-miterlimit="10" stroke-linecap="round" stroke-linejoin="round"/>
<path d="M33.825 105V86.925H40.0625C41.2458 86.925 42.2542 87.0375 43.0875 87.2625C43.9292 87.4875 44.6167 87.8083 45.15 88.225C45.6917 88.6417 46.0875 89.1458 46.3375 89.7375C46.5875 90.3292 46.7125 90.9958 46.7125 91.7375C46.7125 92.1625 46.65 92.5708 46.525 92.9625C46.4 93.3458 46.2042 93.7083 45.9375 94.05C45.6792 94.3833 45.3458 94.6875 44.9375 94.9625C44.5375 95.2375 44.0583 95.4708 43.5 95.6625C45.9833 96.2208 47.225 97.5625 47.225 99.6875C47.225 100.454 47.0792 101.162 46.7875 101.812C46.4958 102.462 46.0708 103.025 45.5125 103.5C44.9542 103.967 44.2667 104.333 43.45 104.6C42.6333 104.867 41.7 105 40.65 105H33.825ZM37.1875 97.075V102.375H40.6C41.225 102.375 41.7458 102.3 42.1625 102.15C42.5875 102 42.925 101.8 43.175 101.55C43.4333 101.3 43.6167 101.008 43.725 100.675C43.8417 100.342 43.9 99.9875 43.9 99.6125C43.9 99.2208 43.8375 98.8708 43.7125 98.5625C43.5875 98.2458 43.3917 97.9792 43.125 97.7625C42.8583 97.5375 42.5167 97.3667 42.1 97.25C41.6833 97.1333 41.1792 97.075 40.5875 97.075H37.1875ZM37.1875 94.75H39.875C41.0167 94.75 41.8833 94.5417 42.475 94.125C43.0667 93.7083 43.3625 93.0458 43.3625 92.1375C43.3625 91.1958 43.0958 90.525 42.5625 90.125C42.0292 89.725 41.1958 89.525 40.0625 89.525H37.1875V94.75ZM61.5092 86.925V89.6H53.4967V94.6125H59.8092V97.2H53.4967V102.312H61.5092V105H50.1092V86.925H61.5092ZM74.1033 90.2125C74.0117 90.3958 73.9033 90.525 73.7783 90.6C73.6617 90.675 73.52 90.7125 73.3533 90.7125C73.1867 90.7125 72.9992 90.65 72.7908 90.525C72.5825 90.3917 72.3367 90.2458 72.0533 90.0875C71.77 89.9292 71.4367 89.7875 71.0533 89.6625C70.6783 89.5292 70.2325 89.4625 69.7158 89.4625C69.2492 89.4625 68.8408 89.5208 68.4908 89.6375C68.1492 89.7458 67.8575 89.9 67.6158 90.1C67.3825 90.3 67.2075 90.5417 67.0908 90.825C66.9742 91.1 66.9158 91.4042 66.9158 91.7375C66.9158 92.1625 67.0325 92.5167 67.2658 92.8C67.5075 93.0833 67.8242 93.325 68.2158 93.525C68.6075 93.725 69.0533 93.9042 69.5533 94.0625C70.0533 94.2208 70.5617 94.3917 71.0783 94.575C71.6033 94.75 72.1158 94.9583 72.6158 95.2C73.1158 95.4333 73.5617 95.7333 73.9533 96.1C74.345 96.4583 74.6575 96.9 74.8908 97.425C75.1325 97.95 75.2533 98.5875 75.2533 99.3375C75.2533 100.154 75.1117 100.921 74.8283 101.637C74.5533 102.346 74.145 102.967 73.6033 103.5C73.07 104.025 72.4158 104.442 71.6408 104.75C70.8658 105.05 69.9783 105.2 68.9783 105.2C68.4033 105.2 67.8367 105.142 67.2783 105.025C66.72 104.917 66.1825 104.758 65.6658 104.55C65.1575 104.342 64.6783 104.092 64.2283 103.8C63.7867 103.508 63.3908 103.183 63.0408 102.825L64.0158 101.212C64.1075 101.096 64.2158 101 64.3408 100.925C64.4742 100.842 64.62 100.8 64.7783 100.8C64.9867 100.8 65.2117 100.887 65.4533 101.062C65.695 101.229 65.9783 101.417 66.3033 101.625C66.6367 101.833 67.0242 102.025 67.4658 102.2C67.9158 102.367 68.4533 102.45 69.0783 102.45C70.0367 102.45 70.7783 102.225 71.3033 101.775C71.8283 101.317 72.0908 100.662 72.0908 99.8125C72.0908 99.3375 71.97 98.95 71.7283 98.65C71.495 98.35 71.1825 98.1 70.7908 97.9C70.3992 97.6917 69.9533 97.5167 69.4533 97.375C68.9533 97.2333 68.445 97.0792 67.9283 96.9125C67.4117 96.7458 66.9033 96.5458 66.4033 96.3125C65.9033 96.0792 65.4575 95.775 65.0658 95.4C64.6742 95.025 64.3575 94.5583 64.1158 94C63.8825 93.4333 63.7658 92.7375 63.7658 91.9125C63.7658 91.2542 63.895 90.6125 64.1533 89.9875C64.42 89.3625 64.8033 88.8083 65.3033 88.325C65.8117 87.8417 66.4325 87.4542 67.1658 87.1625C67.8992 86.8708 68.7367 86.725 69.6783 86.725C70.745 86.725 71.7283 86.8917 72.6283 87.225C73.5283 87.5583 74.295 88.025 74.9283 88.625L74.1033 90.2125ZM90.5566 86.925V89.6875H85.1191V105H81.7566V89.6875H76.2941V86.925H90.5566ZM107.209 90.2125C107.117 90.3958 107.009 90.525 106.884 90.6C106.767 90.675 106.625 90.7125 106.459 90.7125C106.292 90.7125 106.105 90.65 105.896 90.525C105.688 90.3917 105.442 90.2458 105.159 90.0875C104.875 89.9292 104.542 89.7875 104.159 89.6625C103.784 89.5292 103.338 89.4625 102.821 89.4625C102.355 89.4625 101.946 89.5208 101.596 89.6375C101.255 89.7458 100.963 89.9 100.721 90.1C100.488 90.3 100.313 90.5417 100.196 90.825C100.08 91.1 100.021 91.4042 100.021 91.7375C100.021 92.1625 100.138 92.5167 100.371 92.8C100.613 93.0833 100.93 93.325 101.321 93.525C101.713 93.725 102.159 93.9042 102.659 94.0625C103.159 94.2208 103.667 94.3917 104.184 94.575C104.709 94.75 105.221 94.9583 105.721 95.2C106.221 95.4333 106.667 95.7333 107.059 96.1C107.45 96.4583 107.763 96.9 107.996 97.425C108.238 97.95 108.359 98.5875 108.359 99.3375C108.359 100.154 108.217 100.921 107.934 101.637C107.659 102.346 107.25 102.967 106.709 103.5C106.175 104.025 105.521 104.442 104.746 104.75C103.971 105.05 103.084 105.2 102.084 105.2C101.509 105.2 100.942 105.142 100.384 105.025C99.8255 104.917 99.288 104.758 98.7713 104.55C98.263 104.342 97.7838 104.092 97.3338 103.8C96.8921 103.508 96.4963 103.183 96.1463 102.825L97.1213 101.212C97.213 101.096 97.3213 101 97.4463 100.925C97.5796 100.842 97.7255 100.8 97.8838 100.8C98.0921 100.8 98.3171 100.887 98.5588 101.062C98.8005 101.229 99.0838 101.417 99.4088 101.625C99.7421 101.833 100.13 102.025 100.571 102.2C101.021 102.367 101.559 102.45 102.184 102.45C103.142 102.45 103.884 102.225 104.409 101.775C104.934 101.317 105.196 100.662 105.196 99.8125C105.196 99.3375 105.075 98.95 104.834 98.65C104.6 98.35 104.288 98.1 103.896 97.9C103.505 97.6917 103.059 97.5167 102.559 97.375C102.059 97.2333 101.55 97.0792 101.034 96.9125C100.517 96.7458 100.009 96.5458 99.5088 96.3125C99.0088 96.0792 98.563 95.775 98.1713 95.4C97.7796 95.025 97.463 94.5583 97.2213 94C96.988 93.4333 96.8713 92.7375 96.8713 91.9125C96.8713 91.2542 97.0005 90.6125 97.2588 89.9875C97.5255 89.3625 97.9088 88.8083 98.4088 88.325C98.9171 87.8417 99.538 87.4542 100.271 87.1625C101.005 86.8708 101.842 86.725 102.784 86.725C103.85 86.725 104.834 86.8917 105.734 87.225C106.634 87.5583 107.4 88.025 108.034 88.625L107.209 90.2125ZM128.262 95.9625C128.262 97.2875 128.041 98.5167 127.6 99.65C127.158 100.775 126.537 101.75 125.737 102.575C124.937 103.4 123.975 104.046 122.85 104.512C121.725 104.971 120.479 105.2 119.112 105.2C117.745 105.2 116.495 104.971 115.362 104.512C114.237 104.046 113.27 103.4 112.462 102.575C111.662 101.75 111.041 100.775 110.6 99.65C110.158 98.5167 109.937 97.2875 109.937 95.9625C109.937 94.6375 110.158 93.4125 110.6 92.2875C111.041 91.1542 111.662 90.175 112.462 89.35C113.27 88.525 114.237 87.8833 115.362 87.425C116.495 86.9583 117.745 86.725 119.112 86.725C120.479 86.725 121.725 86.9583 122.85 87.425C123.975 87.8917 124.937 88.5375 125.737 89.3625C126.537 90.1792 127.158 91.1542 127.6 92.2875C128.041 93.4125 128.262 94.6375 128.262 95.9625ZM124.812 95.9625C124.812 94.9708 124.679 94.0833 124.412 93.3C124.154 92.5083 123.779 91.8375 123.287 91.2875C122.795 90.7375 122.195 90.3167 121.487 90.025C120.787 89.7333 119.995 89.5875 119.112 89.5875C118.229 89.5875 117.433 89.7333 116.725 90.025C116.016 90.3167 115.412 90.7375 114.912 91.2875C114.42 91.8375 114.041 92.5083 113.775 93.3C113.508 94.0833 113.375 94.9708 113.375 95.9625C113.375 96.9542 113.508 97.8458 113.775 98.6375C114.041 99.4208 114.42 100.087 114.912 100.637C115.412 101.179 116.016 101.596 116.725 101.887C117.433 102.179 118.229 102.325 119.112 102.325C119.995 102.325 120.787 102.179 121.487 101.887C122.195 101.596 122.795 101.179 123.287 100.637C123.779 100.087 124.154 99.4208 124.412 98.6375C124.679 97.8458 124.812 96.9542 124.812 95.9625ZM146.172 105H143.572C143.281 105 143.039 104.929 142.847 104.787C142.664 104.637 142.531 104.454 142.447 104.237L141.097 100.55H133.61L132.26 104.237C132.193 104.429 132.06 104.604 131.86 104.762C131.668 104.921 131.431 105 131.147 105H128.535L135.635 86.925H139.072L146.172 105ZM134.472 98.175H140.235L138.035 92.1625C137.935 91.8958 137.822 91.5833 137.697 91.225C137.581 90.8583 137.464 90.4625 137.347 90.0375C137.231 90.4625 137.114 90.8583 136.997 91.225C136.889 91.5917 136.781 91.9125 136.672 92.1875L134.472 98.175ZM151.509 98.6375V105H148.146V86.925H154.034C155.242 86.925 156.288 87.0667 157.171 87.35C158.055 87.6333 158.784 88.0292 159.359 88.5375C159.934 89.0458 160.359 89.6542 160.634 90.3625C160.909 91.0708 161.046 91.8458 161.046 92.6875C161.046 93.5625 160.901 94.3667 160.609 95.1C160.317 95.825 159.88 96.45 159.296 96.975C158.713 97.5 157.984 97.9083 157.109 98.2C156.234 98.4917 155.209 98.6375 154.034 98.6375H151.509ZM151.509 96.0125H154.034C154.651 96.0125 155.188 95.9375 155.646 95.7875C156.105 95.6292 156.484 95.4083 156.784 95.125C157.084 94.8333 157.309 94.4833 157.459 94.075C157.609 93.6583 157.684 93.1958 157.684 92.6875C157.684 92.2042 157.609 91.7667 157.459 91.375C157.309 90.9833 157.084 90.65 156.784 90.375C156.484 90.1 156.105 89.8917 155.646 89.75C155.188 89.6 154.651 89.525 154.034 89.525H151.509V96.0125Z" fill="#3A4755"/>
<path d="M44.731 146.939C44.731 147.681 44.6073 148.369 44.36 149.004C44.1127 149.634 43.765 150.18 43.317 150.642C42.869 151.104 42.33 151.466 41.7 151.727C41.07 151.984 40.3723 152.112 39.607 152.112C38.8417 152.112 38.1417 151.984 37.507 151.727C36.877 151.466 36.3357 151.104 35.883 150.642C35.435 150.18 35.0873 149.634 34.84 149.004C34.5927 148.369 34.469 147.681 34.469 146.939C34.469 146.197 34.5927 145.511 34.84 144.881C35.0873 144.246 35.435 143.698 35.883 143.236C36.3357 142.774 36.877 142.415 37.507 142.158C38.1417 141.897 38.8417 141.766 39.607 141.766C40.3723 141.766 41.07 141.897 41.7 142.158C42.33 142.419 42.869 142.781 43.317 143.243C43.765 143.7 44.1127 144.246 44.36 144.881C44.6073 145.511 44.731 146.197 44.731 146.939ZM42.799 146.939C42.799 146.384 42.7243 145.887 42.575 145.448C42.4303 145.005 42.2203 144.629 41.945 144.321C41.6697 144.013 41.3337 143.777 40.937 143.614C40.545 143.451 40.1017 143.369 39.607 143.369C39.1123 143.369 38.6667 143.451 38.27 143.614C37.8733 143.777 37.535 144.013 37.255 144.321C36.9797 144.629 36.7673 145.005 36.618 145.448C36.4687 145.887 36.394 146.384 36.394 146.939C36.394 147.494 36.4687 147.994 36.618 148.437C36.7673 148.876 36.9797 149.249 37.255 149.557C37.535 149.86 37.8733 150.094 38.27 150.257C38.6667 150.42 39.1123 150.502 39.607 150.502C40.1017 150.502 40.545 150.42 40.937 150.257C41.3337 150.094 41.6697 149.86 41.945 149.557C42.2203 149.249 42.4303 148.876 42.575 148.437C42.7243 147.994 42.799 147.494 42.799 146.939ZM52.6033 141.878V143.376H48.1163V146.372H51.9033V147.877H48.1163V152H46.2193V141.878H52.6033ZM63.9206 141.878V143.425H60.8756V152H58.9926V143.425H55.9336V141.878H63.9206ZM73.6538 152H71.7568V147.576H67.0108V152H65.1138V141.878H67.0108V146.232H71.7568V141.878H73.6538V152ZM82.0798 141.878V143.376H77.5928V146.183H81.1278V147.632H77.5928V150.495H82.0798V152H75.6958V141.878H82.0798ZM89.6066 141.766C90.0732 141.766 90.5002 141.836 90.8876 141.976C91.2749 142.111 91.6062 142.305 91.8816 142.557C92.1569 142.809 92.3716 143.112 92.5256 143.467C92.6796 143.822 92.7566 144.216 92.7566 144.65C92.7566 145.023 92.7006 145.369 92.5886 145.686C92.4812 146.003 92.3342 146.307 92.1476 146.596C91.9656 146.885 91.7509 147.165 91.5036 147.436C91.2562 147.707 90.9972 147.982 90.7266 148.262L88.4446 150.593C88.6686 150.528 88.8879 150.479 89.1026 150.446C89.3172 150.409 89.5226 150.39 89.7186 150.39H92.3156C92.5022 150.39 92.6492 150.444 92.7566 150.551C92.8686 150.654 92.9246 150.791 92.9246 150.964V152H85.9806V151.426C85.9806 151.309 86.0039 151.188 86.0506 151.062C86.1019 150.936 86.1812 150.819 86.2886 150.712L89.3616 147.632C89.6182 147.371 89.8469 147.121 90.0476 146.883C90.2529 146.645 90.4232 146.409 90.5586 146.176C90.6986 145.943 90.8036 145.707 90.8736 145.469C90.9482 145.226 90.9856 144.972 90.9856 144.706C90.9856 144.463 90.9506 144.251 90.8806 144.069C90.8106 143.882 90.7102 143.726 90.5796 143.6C90.4489 143.474 90.2926 143.381 90.1106 143.32C89.9332 143.255 89.7326 143.222 89.5086 143.222C89.0932 143.222 88.7502 143.327 88.4796 143.537C88.2136 143.747 88.0269 144.029 87.9196 144.384C87.8682 144.561 87.7912 144.69 87.6886 144.769C87.5859 144.844 87.4552 144.881 87.2966 144.881C87.2266 144.881 87.1496 144.874 87.0656 144.86L86.1556 144.699C86.2256 144.214 86.3609 143.789 86.5616 143.425C86.7622 143.056 87.0119 142.751 87.3106 142.508C87.6139 142.261 87.9592 142.076 88.3466 141.955C88.7386 141.829 89.1586 141.766 89.6066 141.766ZM101.284 146.939C101.284 147.821 101.188 148.589 100.997 149.242C100.81 149.891 100.549 150.427 100.213 150.852C99.8813 151.277 99.487 151.594 99.0297 151.804C98.577 152.009 98.087 152.112 97.5597 152.112C97.0323 152.112 96.5423 152.009 96.0897 151.804C95.6417 151.594 95.252 151.277 94.9207 150.852C94.5893 150.427 94.3303 149.891 94.1437 149.242C93.957 148.589 93.8637 147.821 93.8637 146.939C93.8637 146.052 93.957 145.285 94.1437 144.636C94.3303 143.987 94.5893 143.451 94.9207 143.026C95.252 142.601 95.6417 142.286 96.0897 142.081C96.5423 141.871 97.0323 141.766 97.5597 141.766C98.087 141.766 98.577 141.871 99.0297 142.081C99.487 142.286 99.8813 142.601 100.213 143.026C100.549 143.451 100.81 143.987 100.997 144.636C101.188 145.285 101.284 146.052 101.284 146.939ZM99.4987 146.939C99.4987 146.206 99.445 145.6 99.3377 145.119C99.2303 144.638 99.0857 144.256 98.9037 143.971C98.7263 143.686 98.521 143.488 98.2877 143.376C98.0543 143.259 97.8117 143.201 97.5597 143.201C97.3123 143.201 97.072 143.259 96.8387 143.376C96.61 143.488 96.407 143.686 96.2297 143.971C96.0523 144.256 95.91 144.638 95.8027 145.119C95.7 145.6 95.6487 146.206 95.6487 146.939C95.6487 147.672 95.7 148.278 95.8027 148.759C95.91 149.24 96.0523 149.622 96.2297 149.907C96.407 150.192 96.61 150.392 96.8387 150.509C97.072 150.621 97.3123 150.677 97.5597 150.677C97.8117 150.677 98.0543 150.621 98.2877 150.509C98.521 150.392 98.7263 150.192 98.9037 149.907C99.0857 149.622 99.2303 149.24 99.3377 148.759C99.445 148.278 99.4987 147.672 99.4987 146.939ZM103.518 150.705H105.569V144.804C105.569 144.575 105.576 144.335 105.59 144.083L104.134 145.301C104.073 145.352 104.01 145.387 103.945 145.406C103.884 145.425 103.823 145.434 103.763 145.434C103.669 145.434 103.583 145.415 103.504 145.378C103.429 145.336 103.373 145.289 103.336 145.238L102.79 144.489L105.877 141.864H107.298V150.705H109.118V152H103.518V150.705ZM113.816 152.112C113.293 152.112 112.815 152.042 112.381 151.902C111.952 151.762 111.583 151.564 111.275 151.307C110.967 151.05 110.727 150.74 110.554 150.376C110.386 150.012 110.302 149.606 110.302 149.158C110.302 148.561 110.449 148.057 110.743 147.646C111.037 147.231 111.494 146.923 112.115 146.722C111.62 146.517 111.249 146.225 111.002 145.847C110.759 145.469 110.638 145.014 110.638 144.482C110.638 144.099 110.715 143.742 110.869 143.411C111.028 143.08 111.247 142.793 111.527 142.55C111.807 142.303 112.141 142.111 112.528 141.976C112.92 141.836 113.349 141.766 113.816 141.766C114.283 141.766 114.71 141.836 115.097 141.976C115.489 142.111 115.825 142.303 116.105 142.55C116.385 142.793 116.602 143.08 116.756 143.411C116.915 143.742 116.994 144.099 116.994 144.482C116.994 145.014 116.87 145.469 116.623 145.847C116.376 146.225 116.007 146.517 115.517 146.722C116.138 146.923 116.595 147.231 116.889 147.646C117.183 148.057 117.33 148.561 117.33 149.158C117.33 149.606 117.244 150.012 117.071 150.376C116.903 150.74 116.665 151.05 116.357 151.307C116.049 151.564 115.678 151.762 115.244 151.902C114.815 152.042 114.339 152.112 113.816 152.112ZM113.816 150.761C114.101 150.761 114.35 150.721 114.565 150.642C114.78 150.558 114.959 150.444 115.104 150.299C115.253 150.154 115.365 149.982 115.44 149.781C115.515 149.58 115.552 149.363 115.552 149.13C115.552 148.575 115.398 148.155 115.09 147.87C114.782 147.585 114.357 147.443 113.816 147.443C113.275 147.443 112.85 147.585 112.542 147.87C112.234 148.155 112.08 148.575 112.08 149.13C112.08 149.363 112.117 149.58 112.192 149.781C112.267 149.982 112.376 150.154 112.521 150.299C112.67 150.444 112.852 150.558 113.067 150.642C113.282 150.721 113.531 150.761 113.816 150.761ZM113.816 146.085C114.096 146.085 114.332 146.041 114.523 145.952C114.714 145.863 114.868 145.747 114.985 145.602C115.102 145.453 115.183 145.285 115.23 145.098C115.281 144.907 115.307 144.711 115.307 144.51C115.307 144.319 115.277 144.137 115.216 143.964C115.155 143.791 115.064 143.64 114.943 143.509C114.822 143.374 114.668 143.266 114.481 143.187C114.294 143.108 114.073 143.068 113.816 143.068C113.559 143.068 113.338 143.108 113.151 143.187C112.964 143.266 112.808 143.374 112.682 143.509C112.561 143.64 112.47 143.791 112.409 143.964C112.353 144.137 112.325 144.319 112.325 144.51C112.325 144.711 112.348 144.907 112.395 145.098C112.446 145.285 112.53 145.453 112.647 145.602C112.764 145.747 112.918 145.863 113.109 145.952C113.3 146.041 113.536 146.085 113.816 146.085ZM126.107 148.066V152H124.224V148.066L120.535 141.878H122.194C122.357 141.878 122.486 141.918 122.579 141.997C122.677 142.076 122.759 142.177 122.824 142.298L124.679 145.679C124.786 145.88 124.88 146.071 124.959 146.253C125.038 146.43 125.111 146.605 125.176 146.778C125.237 146.601 125.304 146.423 125.379 146.246C125.458 146.064 125.552 145.875 125.659 145.679L127.5 142.298C127.551 142.195 127.628 142.1 127.731 142.011C127.834 141.922 127.964 141.878 128.123 141.878H129.789L126.107 148.066ZM137.15 141.878V143.376H132.663V146.183H136.198V147.632H132.663V150.495H137.15V152H130.766V141.878H137.15ZM147.675 152H146.219C146.056 152 145.92 151.96 145.813 151.881C145.71 151.797 145.636 151.694 145.589 151.573L144.833 149.508H140.64L139.884 151.573C139.847 151.68 139.772 151.778 139.66 151.867C139.553 151.956 139.42 152 139.261 152H137.798L141.774 141.878H143.699L147.675 152ZM141.123 148.178H144.35L143.118 144.811C143.062 144.662 142.999 144.487 142.929 144.286C142.864 144.081 142.798 143.859 142.733 143.621C142.668 143.859 142.602 144.081 142.537 144.286C142.476 144.491 142.416 144.671 142.355 144.825L141.123 148.178ZM150.663 148.045V152H148.78V141.878H151.867C152.558 141.878 153.148 141.95 153.638 142.095C154.133 142.235 154.537 142.433 154.849 142.69C155.167 142.947 155.398 143.255 155.542 143.614C155.692 143.969 155.766 144.361 155.766 144.79C155.766 145.131 155.715 145.453 155.612 145.756C155.514 146.059 155.37 146.335 155.178 146.582C154.992 146.829 154.758 147.046 154.478 147.233C154.203 147.42 153.888 147.569 153.533 147.681C153.771 147.816 153.977 148.01 154.149 148.262L156.683 152H154.989C154.826 152 154.686 151.967 154.569 151.902C154.457 151.837 154.362 151.743 154.282 151.622L152.154 148.381C152.075 148.26 151.986 148.173 151.888 148.122C151.795 148.071 151.655 148.045 151.468 148.045H150.663ZM150.663 146.694H151.839C152.194 146.694 152.502 146.65 152.763 146.561C153.029 146.472 153.246 146.351 153.414 146.197C153.587 146.038 153.715 145.852 153.799 145.637C153.883 145.422 153.925 145.187 153.925 144.93C153.925 144.417 153.755 144.022 153.414 143.747C153.078 143.472 152.563 143.334 151.867 143.334H150.663V146.694Z" fill="#3A4755"/>
</svg>
