<svg width="312" height="88" viewBox="0 0 312 88" fill="none" xmlns="http://www.w3.org/2000/svg">
<path d="M68.9722 43.8604C68.9722 36.0527 57.2593 29.937 42.3062 29.937C27.354 29.937 15.6411 36.0527 15.6411 43.8604C15.6411 51.668 27.354 57.7842 42.3062 57.7842C57.2593 57.7842 68.9722 51.668 68.9722 43.8604ZM42.3062 54.7842C29.4785 54.7842 18.6411 49.7812 18.6411 43.8604C18.6411 37.9395 29.4785 32.937 42.3062 32.937C55.1343 32.937 65.9722 37.9395 65.9722 43.8604C65.9722 49.7812 55.1343 54.7842 42.3062 54.7842ZM23.4263 27.5264H14.3149C13.4863 27.5264 12.8149 26.855 12.8149 26.0264C12.8149 25.1978 13.4863 24.5264 14.3149 24.5264H23.4263C24.2549 24.5264 24.9263 25.1978 24.9263 26.0264C24.9263 26.855 24.2549 27.5264 23.4263 27.5264ZM26.9263 26.0264C26.9263 25.1978 27.5977 24.5264 28.4263 24.5264H30.6484C31.4771 24.5264 32.1484 25.1978 32.1484 26.0264C32.1484 26.855 31.4771 27.5264 30.6484 27.5264H28.4263C27.5977 27.5264 26.9263 26.855 26.9263 26.0264ZM61.187 60.1943H70.2974C71.1255 60.1943 71.7974 60.8662 71.7974 61.6943C71.7974 62.5225 71.1255 63.1943 70.2974 63.1943H61.187C60.3589 63.1943 59.687 62.5225 59.687 61.6943C59.687 60.8662 60.3589 60.1943 61.187 60.1943ZM57.687 61.6943C57.687 62.5225 57.0151 63.1943 56.187 63.1943H53.9644C53.1362 63.1943 52.4644 62.5225 52.4644 61.6943C52.4644 60.8662 53.1362 60.1943 53.9644 60.1943H56.187C57.0151 60.1943 57.687 60.8662 57.687 61.6943ZM52.2593 15.7739C56.6079 15.7739 60.146 12.2358 60.146 7.88672C60.146 3.53809 56.6079 0 52.2593 0C47.9097 0 44.3716 3.53809 44.3716 7.88672C44.3716 12.2358 47.9097 15.7739 52.2593 15.7739ZM52.2593 3C54.9536 3 57.146 5.19238 57.146 7.88672C57.146 10.5815 54.9536 12.7739 52.2593 12.7739C49.564 12.7739 47.3716 10.5815 47.3716 7.88672C47.3716 5.19238 49.564 3 52.2593 3ZM78.7778 10.1953C72.9697 10.1953 68.0396 13.9975 66.3278 19.2407H7.23389C5.85547 19.2407 4.73389 20.3623 4.73389 21.7407V58.889C1.89764 60.6558 0 63.7938 0 67.374C0 72.8877 4.48584 77.374 10 77.374C15.1401 77.374 19.3829 73.4744 19.9354 68.4795H77.3794C78.7583 68.4795 79.8794 67.3584 79.8794 65.9795V36.3373C86.5873 35.7748 91.8765 30.1453 91.8765 23.2944C91.8765 16.0718 86.0005 10.1953 78.7778 10.1953ZM10 74.374C6.14014 74.374 3 71.2334 3 67.374C3 63.5146 6.14014 60.374 10 60.374C13.8599 60.374 17 63.5146 17 67.374C17 71.2334 13.8599 74.374 10 74.374ZM76.8794 65.4795H19.8146C18.9261 60.8693 14.866 57.374 10 57.374C9.2196 57.374 8.46332 57.4729 7.73389 57.6428V22.2407H65.7316C65.7037 22.5894 65.6782 22.9388 65.6782 23.2944C65.6782 29.8708 70.5547 35.3151 76.8794 36.2395V65.4795ZM78.7778 33.3931C73.2085 33.3931 68.6782 28.8628 68.6782 23.2944C68.6782 17.7256 73.2085 13.1953 78.7778 13.1953C84.3462 13.1953 88.8765 17.7256 88.8765 23.2944C88.8765 28.8628 84.3462 33.3931 78.7778 33.3931ZM86.4761 23.2939C86.4761 27.5391 83.022 30.9932 78.7769 30.9932C77.9487 30.9932 77.2769 30.3218 77.2769 29.4932C77.2769 28.6646 77.9487 27.9932 78.7769 27.9932C81.3677 27.9932 83.4761 25.8853 83.4761 23.2939C83.4761 22.4653 84.1479 21.7939 84.9761 21.7939C85.8042 21.7939 86.4761 22.4653 86.4761 23.2939ZM30.2959 73.0752C26.2446 73.0752 22.9482 76.3711 22.9482 80.4229C22.9482 84.4746 26.2446 87.7715 30.2959 87.7715C34.3477 87.7715 37.644 84.4746 37.644 80.4229C37.644 76.3711 34.3477 73.0752 30.2959 73.0752ZM30.2959 84.7715C27.8984 84.7715 25.9482 82.8203 25.9482 80.4229C25.9482 78.0254 27.8984 76.0752 30.2959 76.0752C32.6934 76.0752 34.644 78.0254 34.644 80.4229C34.644 82.8203 32.6934 84.7715 30.2959 84.7715Z" fill="#EBBAA9"/>
<path d="M101.29 73.8875V29.655H106.198C106.718 29.655 107.162 29.7742 107.53 30.0125C107.898 30.2508 108.137 30.6192 108.245 31.1175L108.895 34.205C110.238 32.6667 111.777 31.4208 113.51 30.4675C115.265 29.5142 117.313 29.0375 119.653 29.0375C121.473 29.0375 123.13 29.4167 124.625 30.175C126.142 30.9333 127.442 32.0383 128.525 33.49C129.63 34.92 130.475 36.6967 131.06 38.82C131.667 40.9217 131.97 43.3375 131.97 46.0675C131.97 48.5592 131.634 50.8667 130.963 52.99C130.291 55.1133 129.327 56.955 128.07 58.515C126.835 60.075 125.329 61.2992 123.553 62.1875C121.798 63.0542 119.826 63.4875 117.638 63.4875C115.753 63.4875 114.149 63.2058 112.828 62.6425C111.528 62.0575 110.358 61.2558 109.318 60.2375V73.8875H101.29ZM116.89 35.375C115.222 35.375 113.792 35.7325 112.6 36.4475C111.43 37.1408 110.336 38.1267 109.318 39.405V54.355C110.228 55.4817 111.213 56.2725 112.275 56.7275C113.358 57.1608 114.518 57.3775 115.753 57.3775C116.966 57.3775 118.06 57.15 119.035 56.695C120.032 56.24 120.866 55.5467 121.538 54.615C122.231 53.6833 122.762 52.5133 123.13 51.105C123.498 49.675 123.683 47.9958 123.683 46.0675C123.683 44.1175 123.52 42.4708 123.195 41.1275C122.892 39.7625 122.448 38.6575 121.863 37.8125C121.278 36.9675 120.563 36.35 119.718 35.96C118.894 35.57 117.952 35.375 116.89 35.375ZM145.388 29.655V50.845C145.388 52.8817 145.854 54.4633 146.785 55.59C147.739 56.695 149.158 57.2475 151.043 57.2475C152.43 57.2475 153.73 56.9442 154.943 56.3375C156.156 55.7092 157.305 54.8533 158.388 53.77V29.655H166.415V63H161.508C160.468 63 159.785 62.5125 159.46 61.5375L158.908 58.8725C158.215 59.5658 157.5 60.205 156.763 60.79C156.026 61.3533 155.235 61.8408 154.39 62.2525C153.567 62.6425 152.668 62.9458 151.693 63.1625C150.74 63.4008 149.71 63.52 148.605 63.52C146.785 63.52 145.171 63.2167 143.763 62.61C142.376 61.9817 141.206 61.1042 140.253 59.9775C139.3 58.8508 138.574 57.5183 138.075 55.98C137.599 54.42 137.36 52.7083 137.36 50.845V29.655H145.388ZM174.986 63V29.655H179.699C180.522 29.655 181.096 29.8067 181.421 30.11C181.746 30.4133 181.963 30.9333 182.071 31.67L182.559 35.7C183.75 33.6417 185.148 32.0167 186.751 30.825C188.355 29.6333 190.153 29.0375 192.146 29.0375C193.793 29.0375 195.158 29.4167 196.241 30.175L195.201 36.1875C195.136 36.5775 194.995 36.8592 194.779 37.0325C194.562 37.1842 194.27 37.26 193.901 37.26C193.576 37.26 193.132 37.1842 192.569 37.0325C192.005 36.8808 191.258 36.805 190.326 36.805C188.658 36.805 187.228 37.2708 186.036 38.2025C184.845 39.1125 183.837 40.4558 183.014 42.2325V63H174.986ZM210.067 29.655V63H202.039V29.655H210.067ZM211.269 19.9375C211.269 20.6308 211.129 21.2808 210.847 21.8875C210.565 22.4942 210.186 23.025 209.709 23.48C209.254 23.935 208.713 24.3033 208.084 24.585C207.456 24.845 206.784 24.975 206.069 24.975C205.376 24.975 204.715 24.845 204.087 24.585C203.48 24.3033 202.949 23.935 202.494 23.48C202.039 23.025 201.671 22.4942 201.389 21.8875C201.129 21.2808 200.999 20.6308 200.999 19.9375C200.999 19.2225 201.129 18.5508 201.389 17.9225C201.671 17.2942 202.039 16.7525 202.494 16.2975C202.949 15.8425 203.48 15.485 204.087 15.225C204.715 14.9433 205.376 14.8025 206.069 14.8025C206.784 14.8025 207.456 14.9433 208.084 15.225C208.713 15.485 209.254 15.8425 209.709 16.2975C210.186 16.7525 210.565 17.2942 210.847 17.9225C211.129 18.5508 211.269 19.2225 211.269 19.9375ZM230.118 63.52C227.237 63.52 225.016 62.7075 223.456 61.0825C221.896 59.4358 221.116 57.1717 221.116 54.29V35.6675H217.736C217.303 35.6675 216.923 35.5267 216.598 35.245C216.295 34.9633 216.143 34.5408 216.143 33.9775V30.7925L221.506 29.915L223.196 20.815C223.283 20.3817 223.478 20.0458 223.781 19.8075C224.106 19.5692 224.507 19.45 224.983 19.45H229.143V29.9475H237.918V35.6675H229.143V53.7375C229.143 54.7775 229.403 55.59 229.923 56.175C230.443 56.76 231.137 57.0525 232.003 57.0525C232.502 57.0525 232.913 56.9983 233.238 56.89C233.585 56.76 233.878 56.63 234.116 56.5C234.376 56.37 234.603 56.2508 234.798 56.1425C234.993 56.0125 235.188 55.9475 235.383 55.9475C235.622 55.9475 235.817 56.0125 235.968 56.1425C236.12 56.2508 236.283 56.4242 236.456 56.6625L238.861 60.5625C237.691 61.5375 236.348 62.2742 234.831 62.7725C233.314 63.2708 231.743 63.52 230.118 63.52ZM256.133 72.165C255.894 72.7283 255.58 73.1508 255.19 73.4325C254.822 73.7358 254.248 73.8875 253.468 73.8875H247.488L253.728 60.53L240.24 29.655H247.26C247.91 29.655 248.409 29.8067 248.755 30.11C249.102 30.4133 249.362 30.76 249.535 31.15L256.653 48.44C256.891 49.0033 257.097 49.5883 257.27 50.195C257.444 50.8017 257.595 51.4083 257.725 52.015C257.899 51.3867 258.083 50.78 258.278 50.195C258.494 49.61 258.722 49.0142 258.96 48.4075L265.655 31.15C265.829 30.7167 266.11 30.3592 266.5 30.0775C266.912 29.7958 267.367 29.655 267.865 29.655H274.3L256.133 72.165ZM272.6 58.58C272.6 57.9083 272.719 57.2692 272.958 56.6625C273.218 56.0558 273.564 55.5358 273.998 55.1025C274.453 54.6692 274.983 54.3225 275.59 54.0625C276.197 53.8025 276.847 53.6725 277.54 53.6725C278.212 53.6725 278.851 53.8025 279.458 54.0625C280.064 54.3225 280.584 54.6692 281.018 55.1025C281.451 55.5358 281.798 56.0558 282.058 56.6625C282.318 57.2692 282.448 57.9083 282.448 58.58C282.448 59.2733 282.318 59.9233 282.058 60.53C281.798 61.115 281.451 61.6242 281.018 62.0575C280.584 62.4908 280.064 62.8267 279.458 63.065C278.851 63.325 278.212 63.455 277.54 63.455C276.847 63.455 276.197 63.325 275.59 63.065C274.983 62.8267 274.453 62.4908 273.998 62.0575C273.564 61.6242 273.218 61.115 272.958 60.53C272.719 59.9233 272.6 59.2733 272.6 58.58Z" fill="#EBBAA9"/>
</svg>
