<svg width="178" height="178" viewBox="0 0 178 178" fill="none" xmlns="http://www.w3.org/2000/svg">
<path d="M151.589 151.59C186.268 116.911 186.268 60.6869 151.589 26.0087C116.911 -8.66957 60.6869 -8.66957 26.0087 26.0087C-8.66957 60.6869 -8.66957 116.911 26.0087 151.59C60.6869 186.268 116.911 186.268 151.589 151.59Z" fill="#7DC9A0"/>
<path d="M146.974 146.719C178.961 114.731 178.961 62.8688 146.974 30.8813C114.986 -1.10628 63.1242 -1.10628 31.1367 30.8813C-0.850904 62.8688 -0.850904 114.731 31.1367 146.719C63.1242 178.706 114.986 178.706 146.974 146.719Z" stroke="#163D35" stroke-miterlimit="10"/>
<path d="M27.8783 78.5488C27.8783 79.8388 26.8383 80.8788 25.5483 80.8788C24.2583 80.8788 23.2183 79.8388 23.2183 78.5488C23.2183 77.2588 24.2583 76.2188 25.5483 76.2188C26.8283 76.2188 27.8783 77.2688 27.8783 78.5488Z" fill="#5FA081"/>
<path d="M154.338 78.5488C154.338 79.8388 153.298 80.8788 152.008 80.8788C150.718 80.8788 149.678 79.8388 149.678 78.5488C149.678 77.2588 150.718 76.2188 152.008 76.2188C153.298 76.2188 154.338 77.2688 154.338 78.5488Z" fill="#5FA081"/>
<path d="M95.6341 136.484C93.5241 129.464 83.2141 129.464 81.1041 136.484C80.7341 137.724 80.5441 139.194 80.6541 140.964C81.1541 149.554 88.3741 158.104 88.3741 158.104C88.3741 158.104 95.5841 149.554 96.0941 140.964C96.1941 139.194 96.0041 137.724 95.6341 136.484Z" fill="#5FA081"/>
<path d="M114.634 147.955C118.104 141.495 110.814 134.215 104.364 137.685C103.224 138.295 102.054 139.215 100.874 140.535C95.1541 146.965 94.2041 158.116 94.2041 158.116C94.2041 158.116 105.354 157.166 111.784 151.446C113.104 150.266 114.024 149.095 114.634 147.955Z" fill="#5FA081"/>
<path d="M62.1139 147.955C58.6439 141.495 65.9343 134.215 72.3843 137.685C73.5243 138.295 74.6943 139.215 75.8743 140.535C81.5943 146.965 82.5443 158.116 82.5443 158.116C82.5443 158.116 71.3943 157.166 64.9643 151.446C63.6343 150.266 62.7239 149.095 62.1139 147.955Z" fill="#5FA081"/>
<path d="M59.3356 70.5148C59.2073 70.7718 59.0556 70.9528 58.8806 71.0578C58.7173 71.1628 58.5189 71.2148 58.2856 71.2148C58.0523 71.2148 57.7898 71.1278 57.4981 70.9528C57.2064 70.7658 56.8623 70.5618 56.4656 70.3398C56.0689 70.1188 55.6024 69.9198 55.0657 69.7448C54.5407 69.5588 53.9164 69.4648 53.1931 69.4648C52.5398 69.4648 51.9681 69.5468 51.4781 69.7098C50.9998 69.8618 50.5915 70.0778 50.2532 70.3578C49.9265 70.6378 49.6815 70.9758 49.5182 71.3728C49.3549 71.7578 49.2731 72.1838 49.2731 72.6498C49.2731 73.2448 49.4364 73.7408 49.7631 74.1378C50.1014 74.5348 50.5448 74.8728 51.0931 75.1528C51.6414 75.4328 52.2656 75.6838 52.9656 75.9048C53.6656 76.1268 54.3773 76.3658 55.1006 76.6228C55.8356 76.8678 56.5532 77.1598 57.2532 77.4978C57.9532 77.8248 58.5773 78.2448 59.1256 78.7578C59.6739 79.2598 60.1114 79.8778 60.4381 80.6128C60.7764 81.3478 60.9456 82.2398 60.9456 83.2898C60.9456 84.4338 60.7473 85.5068 60.3506 86.5098C59.9656 87.5018 59.394 88.3708 58.6357 89.1178C57.889 89.8528 56.9731 90.4358 55.8881 90.8678C54.8031 91.2878 53.5606 91.4978 52.1606 91.4978C51.3556 91.4978 50.5623 91.4158 49.7806 91.2528C48.9989 91.1008 48.2464 90.8798 47.5231 90.5878C46.8114 90.2958 46.1407 89.9458 45.5107 89.5378C44.8924 89.1298 44.3381 88.6748 43.8481 88.1728L45.2132 85.9148C45.3415 85.7518 45.4931 85.6178 45.6681 85.5128C45.8548 85.3958 46.0589 85.3378 46.2806 85.3378C46.5723 85.3378 46.8873 85.4598 47.2256 85.7048C47.5639 85.9388 47.9606 86.2008 48.4156 86.4928C48.8823 86.7848 49.4248 87.0528 50.0431 87.2978C50.6731 87.5308 51.4256 87.6478 52.3006 87.6478C53.6423 87.6478 54.6806 87.3328 55.4156 86.7028C56.1506 86.0608 56.5182 85.1448 56.5182 83.9548C56.5182 83.2898 56.349 82.7478 56.0107 82.3278C55.684 81.9078 55.2465 81.5578 54.6982 81.2778C54.1499 80.9858 53.5256 80.7408 52.8256 80.5428C52.1256 80.3448 51.414 80.1288 50.6907 79.8948C49.9674 79.6618 49.2556 79.3818 48.5556 79.0548C47.8556 78.7288 47.2314 78.3028 46.6831 77.7778C46.1348 77.2528 45.6914 76.5998 45.3531 75.8178C45.0264 75.0248 44.8631 74.0498 44.8631 72.8948C44.8631 71.9738 45.0439 71.0748 45.4056 70.1998C45.7789 69.3248 46.3156 68.5498 47.0156 67.8728C47.7273 67.1958 48.5964 66.6538 49.6231 66.2448C50.6498 65.8368 51.8223 65.6328 53.1406 65.6328C54.6339 65.6328 56.0106 65.8658 57.2706 66.3328C58.5306 66.7998 59.6039 67.4528 60.4906 68.2928L59.3356 70.5148ZM88.8102 78.5648C88.8102 80.4198 88.5011 82.1408 87.8831 83.7278C87.2641 85.3028 86.3951 86.6678 85.2751 87.8228C84.1551 88.9778 82.8081 89.8818 81.2331 90.5348C79.6581 91.1768 77.9131 91.4978 76.0001 91.4978C74.0871 91.4978 72.3371 91.1768 70.7501 90.5348C69.1751 89.8818 67.8221 88.9778 66.6901 87.8228C65.5701 86.6678 64.7011 85.3028 64.0831 83.7278C63.4641 82.1408 63.1553 80.4198 63.1553 78.5648C63.1553 76.7098 63.4641 74.9948 64.0831 73.4198C64.7011 71.8338 65.5701 70.4628 66.6901 69.3078C67.8221 68.1528 69.1751 67.2548 70.7501 66.6128C72.3371 65.9598 74.0871 65.6328 76.0001 65.6328C77.9131 65.6328 79.6581 65.9598 81.2331 66.6128C82.8081 67.2658 84.1551 68.1698 85.2751 69.3248C86.3951 70.4688 87.2641 71.8338 87.8831 73.4198C88.5011 74.9948 88.8102 76.7098 88.8102 78.5648ZM83.9801 78.5648C83.9801 77.1768 83.7932 75.9348 83.4202 74.8378C83.0582 73.7298 82.5331 72.7898 81.8451 72.0198C81.1571 71.2498 80.3171 70.6608 79.3251 70.2528C78.3451 69.8448 77.2371 69.6398 76.0001 69.6398C74.7631 69.6398 73.6491 69.8448 72.6581 70.2528C71.6661 70.6608 70.8201 71.2498 70.1201 72.0198C69.4321 72.7898 68.9011 73.7298 68.5281 74.8378C68.1541 75.9348 67.9681 77.1768 67.9681 78.5648C67.9681 79.9538 68.1541 81.2018 68.5281 82.3098C68.9011 83.4068 69.4321 84.3398 70.1201 85.1098C70.8201 85.8688 71.6661 86.4518 72.6581 86.8598C73.6491 87.2688 74.7631 87.4728 76.0001 87.4728C77.2371 87.4728 78.3451 87.2688 79.3251 86.8598C80.3171 86.4518 81.1571 85.8688 81.8451 85.1098C82.5331 84.3398 83.0582 83.4068 83.4202 82.3098C83.7932 81.2018 83.9801 79.9538 83.9801 78.5648ZM113.885 91.2178H110.245C109.836 91.2178 109.498 91.1188 109.23 90.9198C108.973 90.7098 108.786 90.4538 108.67 90.1498L106.78 84.9878H96.2971L94.4071 90.1498C94.3141 90.4188 94.1271 90.6638 93.8471 90.8848C93.5791 91.1068 93.2462 91.2178 92.8502 91.2178H89.1921L99.1321 65.9128H103.945L113.885 91.2178ZM97.5051 81.6628H105.572L102.492 73.2448C102.352 72.8718 102.195 72.4348 102.02 71.9328C101.856 71.4198 101.693 70.8648 101.53 70.2698C101.366 70.8648 101.203 71.4198 101.04 71.9328C100.888 72.4458 100.736 72.8948 100.585 73.2798L97.5051 81.6628ZM121.356 82.3098V91.2178H116.648V65.9128H124.891C126.582 65.9128 128.047 66.1108 129.283 66.5078C130.52 66.9048 131.541 67.4588 132.346 68.1698C133.151 68.8818 133.746 69.7338 134.131 70.7248C134.516 71.7168 134.708 72.8018 134.708 73.9798C134.708 75.2048 134.504 76.3308 134.096 77.3578C133.687 78.3728 133.075 79.2478 132.258 79.9828C131.442 80.7178 130.421 81.2898 129.196 81.6978C127.971 82.1058 126.536 82.3098 124.891 82.3098H121.356ZM121.356 78.6348H124.891C125.754 78.6348 126.507 78.5298 127.148 78.3198C127.79 78.0988 128.321 77.7898 128.741 77.3928C129.161 76.9848 129.476 76.4948 129.686 75.9228C129.896 75.3398 130.001 74.6918 130.001 73.9798C130.001 73.3038 129.896 72.6908 129.686 72.1428C129.476 71.5948 129.161 71.1278 128.741 70.7428C128.321 70.3578 127.79 70.0658 127.148 69.8678C126.507 69.6578 125.754 69.5528 124.891 69.5528H121.356V78.6348Z" fill="#163D35"/>
<path d="M69.7383 46.3107C69.7383 47.0427 69.6243 47.7147 69.3963 48.3267C69.1723 48.9387 68.8583 49.4667 68.4543 49.9107C68.0543 50.3507 67.5783 50.6947 67.0263 50.9427C66.4783 51.1867 65.8803 51.3088 65.2323 51.3088C64.7043 51.3088 64.2283 51.2147 63.8043 51.0267C63.3843 50.8387 63.0243 50.5787 62.7243 50.2467C62.4283 49.9107 62.2003 49.5127 62.0403 49.0527C61.8843 48.5927 61.8063 48.0887 61.8063 47.5407C61.8063 46.8087 61.9203 46.1367 62.1483 45.5247C62.3763 44.9087 62.6923 44.3787 63.0963 43.9347C63.5003 43.4907 63.9763 43.1447 64.5243 42.8967C65.0763 42.6487 65.6743 42.5247 66.3183 42.5247C66.8463 42.5247 67.3203 42.6207 67.7403 42.8127C68.1643 43.0007 68.5243 43.2627 68.8203 43.5987C69.1163 43.9347 69.3423 44.3347 69.4983 44.7987C69.6583 45.2587 69.7383 45.7627 69.7383 46.3107ZM68.5863 46.3347C68.5863 45.8987 68.5303 45.5047 68.4183 45.1527C68.3063 44.7967 68.1463 44.4947 67.9383 44.2467C67.7343 43.9987 67.4823 43.8067 67.1823 43.6707C66.8863 43.5347 66.5523 43.4667 66.1803 43.4667C65.7083 43.4667 65.2743 43.5627 64.8783 43.7547C64.4863 43.9427 64.1463 44.2127 63.8583 44.5647C63.5743 44.9167 63.3523 45.3427 63.1923 45.8427C63.0363 46.3387 62.9583 46.8947 62.9583 47.5107C62.9583 47.9467 63.0123 48.3407 63.1203 48.6927C63.2323 49.0447 63.3923 49.3447 63.6003 49.5927C63.8083 49.8407 64.0603 50.0327 64.3563 50.1687C64.6523 50.3007 64.9863 50.3667 65.3583 50.3667C65.8343 50.3667 66.2703 50.2727 66.6663 50.0847C67.0623 49.8967 67.4023 49.6287 67.6863 49.2807C67.9703 48.9287 68.1903 48.5047 68.3463 48.0087C68.5063 47.5087 68.5863 46.9507 68.5863 46.3347ZM73.5077 46.7967C73.8477 46.7967 74.1477 46.7487 74.4077 46.6527C74.6677 46.5567 74.8857 46.4227 75.0617 46.2507C75.2417 46.0747 75.3757 45.8687 75.4637 45.6327C75.5557 45.3927 75.6017 45.1307 75.6017 44.8467C75.6017 44.4107 75.4637 44.0787 75.1877 43.8507C74.9157 43.6187 74.5057 43.5027 73.9577 43.5027H72.8177L72.4097 46.7967H73.5077ZM74.0597 42.6207C74.5157 42.6207 74.9097 42.6687 75.2417 42.7647C75.5777 42.8607 75.8537 42.9987 76.0697 43.1787C76.2897 43.3547 76.4517 43.5707 76.5557 43.8267C76.6637 44.0787 76.7177 44.3607 76.7177 44.6727C76.7177 45.0207 76.6657 45.3447 76.5617 45.6447C76.4577 45.9447 76.3077 46.2127 76.1117 46.4487C75.9157 46.6847 75.6797 46.8867 75.4037 47.0547C75.1277 47.2187 74.8157 47.3407 74.4677 47.4207C74.5957 47.5087 74.7017 47.6307 74.7857 47.7867L76.6397 51.2188H75.6437C75.4397 51.2188 75.2997 51.1387 75.2237 50.9787L73.6037 47.8827C73.5517 47.7827 73.4917 47.7127 73.4237 47.6727C73.3557 47.6327 73.2477 47.6127 73.0997 47.6127H72.3077L71.8637 51.2188H70.7477L71.7977 42.6207H74.0597ZM82.1617 47.1027H84.6277L84.2197 50.3847C84.0037 50.5407 83.7797 50.6767 83.5477 50.7927C83.3197 50.9087 83.0777 51.0067 82.8217 51.0867C82.5697 51.1627 82.3017 51.2188 82.0177 51.2548C81.7337 51.2948 81.4277 51.3148 81.0997 51.3148C80.5797 51.3148 80.1077 51.2228 79.6837 51.0387C79.2597 50.8507 78.8977 50.5907 78.5977 50.2587C78.2977 49.9227 78.0657 49.5227 77.9017 49.0587C77.7417 48.5947 77.6617 48.0867 77.6617 47.5347C77.6617 46.7947 77.7757 46.1187 78.0037 45.5067C78.2357 44.8907 78.5537 44.3627 78.9577 43.9227C79.3657 43.4787 79.8477 43.1347 80.4037 42.8907C80.9637 42.6467 81.5737 42.5247 82.2337 42.5247C82.5697 42.5247 82.8717 42.5527 83.1397 42.6087C83.4117 42.6647 83.6577 42.7427 83.8777 42.8427C84.1017 42.9427 84.3017 43.0607 84.4777 43.1967C84.6577 43.3327 84.8217 43.4807 84.9697 43.6407L84.6097 44.1087C84.5497 44.1927 84.4777 44.2447 84.3937 44.2647C84.3137 44.2847 84.2297 44.2667 84.1417 44.2107C84.0537 44.1587 83.9557 44.0927 83.8477 44.0127C83.7437 43.9287 83.6157 43.8507 83.4637 43.7787C83.3117 43.7027 83.1297 43.6387 82.9177 43.5867C82.7057 43.5307 82.4497 43.5027 82.1497 43.5027C81.6577 43.5027 81.2057 43.5967 80.7937 43.7847C80.3857 43.9727 80.0337 44.2407 79.7377 44.5887C79.4457 44.9367 79.2177 45.3567 79.0537 45.8487C78.8937 46.3407 78.8137 46.8887 78.8137 47.4927C78.8137 47.9447 78.8717 48.3507 78.9877 48.7107C79.1077 49.0707 79.2757 49.3767 79.4917 49.6287C79.7077 49.8807 79.9677 50.0747 80.2717 50.2107C80.5757 50.3427 80.9137 50.4087 81.2857 50.4087C81.4937 50.4087 81.6877 50.3967 81.8677 50.3727C82.0477 50.3487 82.2177 50.3167 82.3777 50.2767C82.5377 50.2327 82.6897 50.1807 82.8337 50.1207C82.9777 50.0567 83.1217 49.9847 83.2657 49.9047L83.5057 47.9607H82.3057C82.2337 47.9607 82.1777 47.9407 82.1377 47.9007C82.0977 47.8567 82.0817 47.8047 82.0897 47.7447L82.1617 47.1027ZM90.3734 48.0327L89.5874 44.4747C89.5674 44.3667 89.5434 44.2427 89.5154 44.1027C89.4874 43.9587 89.4634 43.8047 89.4434 43.6407C89.3834 43.8087 89.3234 43.9627 89.2634 44.1027C89.2034 44.2427 89.1494 44.3687 89.1014 44.4807L87.4394 48.0327H90.3734ZM92.2394 51.2188H91.3754C91.2754 51.2188 91.1974 51.1947 91.1414 51.1467C91.0854 51.0947 91.0454 51.0287 91.0214 50.9487L90.5534 48.8487H87.0554L86.0714 50.9487C86.0354 51.0207 85.9794 51.0847 85.9034 51.1407C85.8314 51.1927 85.7494 51.2188 85.6574 51.2188H84.7814L88.9934 42.6207H90.1334L92.2394 51.2188ZM100.842 42.6207L99.7797 51.2188H99.2217C99.1297 51.2188 99.0557 51.2027 98.9997 51.1707C98.9437 51.1347 98.8897 51.0807 98.8377 51.0087L95.1297 44.4327C95.1217 44.5127 95.1157 44.5887 95.1117 44.6607C95.1077 44.7287 95.1017 44.7947 95.0937 44.8587L94.3197 51.2188H93.3297L94.3857 42.6207H94.9677C95.0677 42.6207 95.1397 42.6327 95.1837 42.6567C95.2277 42.6807 95.2737 42.7327 95.3217 42.8127L99.0357 49.3827C99.0437 49.2907 99.0497 49.2027 99.0537 49.1187C99.0617 49.0347 99.0697 48.9567 99.0777 48.8847L99.8517 42.6207H100.842ZM102.977 51.2188H101.849L102.899 42.6207H104.027L102.977 51.2188ZM108.522 50.3487C108.786 50.3487 109.02 50.3267 109.224 50.2827C109.428 50.2387 109.608 50.1847 109.764 50.1207C109.92 50.0567 110.052 49.9867 110.16 49.9107C110.272 49.8307 110.368 49.7587 110.448 49.6947C110.532 49.6307 110.602 49.5767 110.658 49.5327C110.714 49.4887 110.764 49.4667 110.808 49.4667C110.844 49.4667 110.874 49.4747 110.898 49.4907C110.922 49.5027 110.942 49.5187 110.958 49.5387L111.348 50.0247C110.972 50.4327 110.538 50.7507 110.046 50.9787C109.558 51.2027 108.988 51.3148 108.336 51.3148C107.82 51.3148 107.358 51.2228 106.95 51.0387C106.546 50.8547 106.202 50.5987 105.918 50.2707C105.638 49.9387 105.422 49.5447 105.27 49.0887C105.122 48.6327 105.048 48.1307 105.048 47.5827C105.048 46.8347 105.164 46.1507 105.396 45.5307C105.628 44.9107 105.946 44.3787 106.35 43.9347C106.758 43.4867 107.236 43.1407 107.784 42.8967C108.332 42.6487 108.922 42.5247 109.554 42.5247C109.858 42.5247 110.134 42.5507 110.382 42.6027C110.63 42.6547 110.856 42.7307 111.06 42.8307C111.264 42.9307 111.448 43.0507 111.612 43.1907C111.78 43.3307 111.936 43.4867 112.08 43.6587L111.696 44.1267C111.664 44.1667 111.628 44.2007 111.588 44.2287C111.548 44.2527 111.498 44.2647 111.438 44.2647C111.366 44.2647 111.29 44.2247 111.21 44.1447C111.13 44.0647 111.02 43.9787 110.88 43.8867C110.744 43.7907 110.566 43.7027 110.346 43.6227C110.13 43.5427 109.848 43.5027 109.5 43.5027C109.032 43.5027 108.596 43.5967 108.192 43.7847C107.792 43.9687 107.444 44.2347 107.148 44.5827C106.852 44.9267 106.618 45.3447 106.446 45.8367C106.278 46.3287 106.194 46.8807 106.194 47.4927C106.194 47.9367 106.252 48.3347 106.368 48.6867C106.484 49.0387 106.644 49.3387 106.848 49.5867C107.056 49.8307 107.302 50.0187 107.586 50.1507C107.87 50.2827 108.182 50.3487 108.522 50.3487Z" fill="#163D35"/>
<path d="M39.3023 107.621H40.2683C40.3723 107.621 40.4583 107.647 40.5263 107.699C40.5943 107.751 40.6403 107.817 40.6643 107.897L42.4403 113.873C42.4723 113.981 42.5003 114.097 42.5243 114.221C42.5523 114.345 42.5783 114.475 42.6023 114.611C42.6303 114.475 42.6583 114.345 42.6863 114.221C42.7143 114.093 42.7463 113.977 42.7823 113.873L44.8043 107.897C44.8283 107.829 44.8743 107.767 44.9423 107.711C45.0143 107.651 45.1003 107.621 45.2003 107.621H45.5363C45.6403 107.621 45.7243 107.647 45.7883 107.699C45.8563 107.751 45.9043 107.817 45.9323 107.897L47.9423 113.873C48.0143 114.081 48.0783 114.319 48.1343 114.587C48.1583 114.455 48.1803 114.329 48.2003 114.209C48.2203 114.089 48.2463 113.977 48.2783 113.873L50.0603 107.897C50.0803 107.825 50.1243 107.761 50.1923 107.705C50.2643 107.649 50.3503 107.621 50.4503 107.621H51.3563L48.6743 116.219H47.6303L45.4523 109.661C45.4083 109.537 45.3683 109.393 45.3323 109.229C45.3123 109.309 45.2923 109.387 45.2723 109.463C45.2563 109.535 45.2383 109.601 45.2183 109.661L43.0283 116.219H41.9843L39.3023 107.621ZM53.8649 116.219H52.7009V107.621H53.8649V116.219ZM56.7646 107.621C56.8686 107.621 56.9446 107.635 56.9926 107.663C57.0446 107.687 57.1026 107.739 57.1666 107.819L62.1466 114.299C62.1346 114.195 62.1266 114.095 62.1226 113.999C62.1186 113.899 62.1166 113.803 62.1166 113.711V107.621H63.1366V116.219H62.5486C62.4566 116.219 62.3786 116.203 62.3146 116.171C62.2546 116.139 62.1946 116.085 62.1346 116.009L57.1606 109.535C57.1686 109.635 57.1746 109.733 57.1786 109.829C57.1826 109.925 57.1846 110.013 57.1846 110.093V116.219H56.1646V107.621H56.7646ZM65.8349 107.621C65.9389 107.621 66.0149 107.635 66.0629 107.663C66.1149 107.687 66.1729 107.739 66.2369 107.819L71.2169 114.299C71.2049 114.195 71.1969 114.095 71.1929 113.999C71.1889 113.899 71.1869 113.803 71.1869 113.711V107.621H72.2069V116.219H71.6189C71.5269 116.219 71.4489 116.203 71.3849 116.171C71.3249 116.139 71.2649 116.085 71.2049 116.009L66.2309 109.535C66.2389 109.635 66.2449 109.733 66.2489 109.829C66.2529 109.925 66.2549 110.013 66.2549 110.093V116.219H65.2349V107.621H65.8349ZM79.6032 107.621V108.569H75.4752V111.425H78.8172V112.337H75.4752V115.271H79.6032V116.219H74.3052V107.621H79.6032ZM82.5559 112.631V116.219H81.3979V107.621H83.8279C84.3719 107.621 84.8419 107.677 85.2379 107.789C85.6339 107.897 85.9599 108.055 86.2159 108.263C86.4759 108.471 86.6679 108.723 86.7919 109.019C86.9159 109.311 86.9779 109.639 86.9779 110.003C86.9779 110.307 86.9299 110.591 86.8339 110.855C86.7379 111.119 86.5979 111.357 86.4139 111.569C86.2339 111.777 86.0119 111.955 85.7479 112.103C85.4879 112.251 85.1919 112.363 84.8599 112.439C85.0039 112.523 85.1319 112.645 85.2439 112.805L87.7519 116.219H86.7199C86.5079 116.219 86.3519 116.137 86.2519 115.973L84.0199 112.901C83.9519 112.805 83.8779 112.737 83.7979 112.697C83.7179 112.653 83.5979 112.631 83.4379 112.631H82.5559ZM82.5559 111.785H83.7739C84.1139 111.785 84.4119 111.745 84.6679 111.665C84.9279 111.581 85.1439 111.465 85.3159 111.317C85.4919 111.165 85.6239 110.985 85.7119 110.777C85.7999 110.569 85.8439 110.339 85.8439 110.087C85.8439 109.575 85.6739 109.189 85.3339 108.929C84.9979 108.669 84.4959 108.539 83.8279 108.539H82.5559V111.785ZM99.3069 111.923C99.3069 112.567 99.2049 113.159 99.0009 113.699C98.7969 114.235 98.5089 114.697 98.1369 115.085C97.7649 115.473 97.3169 115.775 96.7929 115.991C96.2729 116.203 95.6969 116.309 95.0649 116.309C94.4329 116.309 93.8569 116.203 93.3369 115.991C92.8169 115.775 92.3709 115.473 91.9989 115.085C91.6269 114.697 91.3389 114.235 91.1349 113.699C90.9309 113.159 90.8289 112.567 90.8289 111.923C90.8289 111.279 90.9309 110.689 91.1349 110.153C91.3389 109.613 91.6269 109.149 91.9989 108.761C92.3709 108.369 92.8169 108.065 93.3369 107.849C93.8569 107.633 94.4329 107.525 95.0649 107.525C95.6969 107.525 96.2729 107.633 96.7929 107.849C97.3169 108.065 97.7649 108.369 98.1369 108.761C98.5089 109.149 98.7969 109.613 99.0009 110.153C99.2049 110.689 99.3069 111.279 99.3069 111.923ZM98.1129 111.923C98.1129 111.395 98.0409 110.921 97.8969 110.501C97.7529 110.081 97.5489 109.727 97.2849 109.439C97.0209 109.147 96.7009 108.923 96.3249 108.767C95.9489 108.611 95.5289 108.533 95.0649 108.533C94.6049 108.533 94.1869 108.611 93.8109 108.767C93.4349 108.923 93.1129 109.147 92.8449 109.439C92.5809 109.727 92.3769 110.081 92.2329 110.501C92.0889 110.921 92.0169 111.395 92.0169 111.923C92.0169 112.451 92.0889 112.925 92.2329 113.345C92.3769 113.761 92.5809 114.115 92.8449 114.407C93.1129 114.695 93.4349 114.917 93.8109 115.073C94.1869 115.225 94.6049 115.301 95.0649 115.301C95.5289 115.301 95.9489 115.225 96.3249 115.073C96.7009 114.917 97.0209 114.695 97.2849 114.407C97.5489 114.115 97.7529 113.761 97.8969 113.345C98.0409 112.925 98.1129 112.451 98.1129 111.923ZM106.193 107.621V108.569H102.065V111.575H105.593V112.523H102.065V116.219H100.895V107.621H106.193ZM112.574 107.525C112.938 107.525 113.278 107.579 113.594 107.687C113.91 107.795 114.182 107.953 114.41 108.161C114.642 108.365 114.824 108.615 114.956 108.911C115.088 109.207 115.154 109.543 115.154 109.919C115.154 110.239 115.106 110.535 115.01 110.807C114.914 111.079 114.784 111.341 114.62 111.593C114.456 111.841 114.266 112.083 114.05 112.319C113.838 112.551 113.612 112.789 113.372 113.033L111.11 115.349C111.27 115.305 111.432 115.271 111.596 115.247C111.76 115.219 111.918 115.205 112.07 115.205H114.95C115.066 115.205 115.158 115.239 115.226 115.307C115.294 115.375 115.328 115.463 115.328 115.571V116.219H109.592V115.853C109.592 115.777 109.606 115.699 109.634 115.619C109.666 115.539 109.716 115.465 109.784 115.397L112.538 112.631C112.766 112.399 112.974 112.177 113.162 111.965C113.35 111.749 113.51 111.533 113.642 111.317C113.778 111.101 113.882 110.883 113.954 110.663C114.026 110.439 114.062 110.201 114.062 109.949C114.062 109.697 114.022 109.477 113.942 109.289C113.862 109.097 113.752 108.939 113.612 108.815C113.472 108.691 113.308 108.599 113.12 108.539C112.932 108.475 112.73 108.443 112.514 108.443C112.298 108.443 112.098 108.475 111.914 108.539C111.73 108.603 111.566 108.693 111.422 108.809C111.282 108.921 111.162 109.055 111.062 109.211C110.966 109.367 110.898 109.539 110.858 109.727C110.826 109.843 110.778 109.927 110.714 109.979C110.65 110.031 110.566 110.057 110.462 110.057C110.442 110.057 110.42 110.057 110.396 110.057C110.376 110.053 110.352 110.049 110.324 110.045L109.766 109.949C109.822 109.557 109.93 109.211 110.09 108.911C110.25 108.607 110.452 108.353 110.696 108.149C110.944 107.945 111.226 107.791 111.542 107.687C111.862 107.579 112.206 107.525 112.574 107.525ZM122.529 111.923C122.529 112.675 122.447 113.327 122.283 113.879C122.123 114.427 121.903 114.881 121.623 115.241C121.343 115.601 121.011 115.869 120.627 116.045C120.247 116.221 119.839 116.309 119.403 116.309C118.963 116.309 118.553 116.221 118.173 116.045C117.797 115.869 117.469 115.601 117.189 115.241C116.909 114.881 116.689 114.427 116.529 113.879C116.369 113.327 116.289 112.675 116.289 111.923C116.289 111.171 116.369 110.519 116.529 109.967C116.689 109.415 116.909 108.959 117.189 108.599C117.469 108.235 117.797 107.965 118.173 107.789C118.553 107.613 118.963 107.525 119.403 107.525C119.839 107.525 120.247 107.613 120.627 107.789C121.011 107.965 121.343 108.235 121.623 108.599C121.903 108.959 122.123 109.415 122.283 109.967C122.447 110.519 122.529 111.171 122.529 111.923ZM121.419 111.923C121.419 111.267 121.363 110.717 121.251 110.273C121.143 109.825 120.995 109.465 120.807 109.193C120.623 108.921 120.409 108.727 120.165 108.611C119.921 108.491 119.667 108.431 119.403 108.431C119.139 108.431 118.885 108.491 118.641 108.611C118.397 108.727 118.183 108.921 117.999 109.193C117.815 109.465 117.667 109.825 117.555 110.273C117.447 110.717 117.393 111.267 117.393 111.923C117.393 112.579 117.447 113.129 117.555 113.573C117.667 114.017 117.815 114.375 117.999 114.647C118.183 114.919 118.397 115.115 118.641 115.235C118.885 115.351 119.139 115.409 119.403 115.409C119.667 115.409 119.921 115.351 120.165 115.235C120.409 115.115 120.623 114.919 120.807 114.647C120.995 114.375 121.143 114.017 121.251 113.573C121.363 113.129 121.419 112.579 121.419 111.923ZM124.612 115.403H126.46V109.541C126.46 109.365 126.466 109.187 126.478 109.007L124.942 110.321C124.902 110.353 124.862 110.377 124.822 110.393C124.782 110.405 124.744 110.411 124.708 110.411C124.648 110.411 124.594 110.399 124.546 110.375C124.498 110.347 124.462 110.315 124.438 110.279L124.102 109.817L126.658 107.603H127.528V115.403H129.22V116.219H124.612V115.403ZM133.325 116.315C132.897 116.315 132.505 116.259 132.149 116.147C131.793 116.031 131.487 115.867 131.231 115.655C130.975 115.443 130.777 115.187 130.637 114.887C130.497 114.583 130.427 114.243 130.427 113.867C130.427 113.315 130.571 112.861 130.859 112.505C131.147 112.145 131.559 111.889 132.095 111.737C131.643 111.569 131.301 111.319 131.069 110.987C130.841 110.651 130.727 110.251 130.727 109.787C130.727 109.471 130.789 109.175 130.913 108.899C131.037 108.623 131.213 108.383 131.441 108.179C131.669 107.975 131.941 107.815 132.257 107.699C132.577 107.583 132.933 107.525 133.325 107.525C133.713 107.525 134.067 107.583 134.387 107.699C134.707 107.815 134.981 107.975 135.209 108.179C135.437 108.383 135.613 108.623 135.737 108.899C135.861 109.175 135.923 109.471 135.923 109.787C135.923 110.251 135.807 110.651 135.575 110.987C135.343 111.319 135.003 111.569 134.555 111.737C135.091 111.889 135.503 112.145 135.791 112.505C136.079 112.861 136.223 113.315 136.223 113.867C136.223 114.243 136.151 114.583 136.007 114.887C135.867 115.187 135.669 115.443 135.413 115.655C135.161 115.867 134.857 116.031 134.501 116.147C134.145 116.259 133.753 116.315 133.325 116.315ZM133.325 115.463C133.605 115.463 133.855 115.425 134.075 115.349C134.299 115.269 134.487 115.159 134.639 115.019C134.795 114.875 134.913 114.705 134.993 114.509C135.077 114.309 135.119 114.089 135.119 113.849C135.119 113.553 135.069 113.301 134.969 113.093C134.873 112.881 134.741 112.709 134.573 112.577C134.409 112.445 134.219 112.349 134.003 112.289C133.787 112.225 133.561 112.193 133.325 112.193C133.089 112.193 132.863 112.225 132.647 112.289C132.431 112.349 132.239 112.445 132.071 112.577C131.907 112.709 131.775 112.881 131.675 113.093C131.579 113.301 131.531 113.553 131.531 113.849C131.531 114.089 131.571 114.309 131.651 114.509C131.735 114.705 131.853 114.875 132.005 115.019C132.161 115.159 132.349 115.269 132.569 115.349C132.793 115.425 133.045 115.463 133.325 115.463ZM133.325 111.335C133.605 111.335 133.843 111.293 134.039 111.209C134.239 111.121 134.401 111.007 134.525 110.867C134.649 110.723 134.739 110.559 134.795 110.375C134.851 110.191 134.879 110.001 134.879 109.805C134.879 109.605 134.845 109.417 134.777 109.241C134.713 109.065 134.615 108.911 134.483 108.779C134.355 108.647 134.193 108.543 133.997 108.467C133.805 108.391 133.581 108.353 133.325 108.353C133.069 108.353 132.843 108.391 132.647 108.467C132.455 108.543 132.293 108.647 132.161 108.779C132.033 108.911 131.935 109.065 131.867 109.241C131.803 109.417 131.771 109.605 131.771 109.805C131.771 110.001 131.799 110.191 131.855 110.375C131.911 110.559 132.001 110.723 132.125 110.867C132.249 111.007 132.409 111.121 132.605 111.209C132.805 111.293 133.045 111.335 133.325 111.335Z" fill="#163D35"/>
</svg>
