<svg width="182" height="184" viewBox="0 0 182 184" fill="none" xmlns="http://www.w3.org/2000/svg">
<path d="M173.584 91.62C179.144 88.56 182.414 82.21 181.254 75.61C180.114 69.12 175.014 64.31 168.884 63.23C172.704 58.47 173.444 51.67 170.204 46.07C166.884 40.33 160.404 37.57 154.234 38.71C156.514 32.8 154.944 25.85 149.814 21.55C144.734 17.29 137.714 16.92 132.304 20.09C132.424 13.76 128.564 7.77 122.274 5.48C115.864 3.15 108.904 5.38 104.954 10.52C102.954 4.42 97.2241 0 90.4541 0C83.8241 0 78.1941 4.22 76.0841 10.12C72.0841 5.3 65.3441 3.25 59.1241 5.52C52.8941 7.79 49.0441 13.69 49.0841 19.97C43.6741 16.8 36.6441 17.17 31.5641 21.43C26.4841 25.69 24.8941 32.56 27.0941 38.44C20.9241 37.3 14.4341 40.06 11.1141 45.8C7.80414 51.54 8.65414 58.53 12.7141 63.3C6.52414 64.34 1.38414 69.16 0.234139 75.69C-0.915861 82.22 2.26414 88.5 7.71414 91.6C2.27414 94.7 -0.915861 100.98 0.234139 107.51C1.38414 114.04 6.53414 118.86 12.7141 119.9C8.65414 124.68 7.79414 131.66 11.1141 137.4C14.4341 143.15 20.9141 145.9 27.0841 144.76C24.8941 150.64 26.4741 157.51 31.5541 161.77C36.6341 166.03 43.6641 166.4 49.0741 163.23C49.0241 169.5 52.8841 175.41 59.1141 177.67C65.3441 179.94 72.0841 177.9 76.0741 173.07C78.1841 178.97 83.8141 183.19 90.4441 183.19C97.0741 183.19 102.704 178.97 104.814 173.07C108.814 177.89 115.554 179.93 121.774 177.67C127.924 175.43 131.754 169.66 131.814 163.48C137.264 166.89 144.504 166.58 149.694 162.23C154.834 157.92 156.394 150.95 154.104 145.03C160.334 146.27 166.934 143.51 170.284 137.71C173.634 131.91 172.724 124.83 168.554 120.05C174.834 119.08 180.084 114.23 181.244 107.63C182.414 101.03 179.144 94.68 173.584 91.62Z" fill="#E0E77F"/>
<path d="M173.884 91.793H7.40425C2.15425 94.933 -0.89575 101.103 0.23425 107.503C1.39425 114.033 6.53425 118.853 12.7243 119.893C8.66425 124.673 7.81425 131.663 11.1242 137.403C14.4442 143.143 20.9243 145.903 27.0943 144.763C24.9043 150.633 26.4842 157.513 31.5742 161.773C36.6542 166.023 43.6843 166.403 49.0943 163.233C49.0443 169.503 52.8942 175.403 59.1342 177.673C65.3542 179.943 72.1043 177.903 76.0943 173.073C78.2043 178.973 83.8342 183.203 90.4542 183.203C97.0842 183.203 102.714 178.973 104.824 173.073C108.824 177.903 115.564 179.933 121.784 177.683C127.924 175.443 131.764 169.663 131.824 163.483C137.284 166.883 144.504 166.593 149.704 162.233C154.834 157.923 156.414 150.953 154.104 145.043C160.334 146.273 166.934 143.523 170.284 137.713C173.644 131.903 172.734 124.833 168.554 120.043C174.834 119.083 180.074 114.223 181.244 107.623C182.394 101.153 179.254 94.913 173.884 91.793Z" fill="#E0E77F"/>
<path d="M90.7169 175.352C85.1469 175.352 80.0669 172.362 77.3069 167.682C74.5369 169.972 71.0569 171.242 67.3969 171.242C65.5869 171.242 63.797 170.922 62.077 170.302C56.837 168.392 53.0769 163.842 52.0969 158.492C50.4269 159.082 48.6569 159.392 46.8669 159.392C43.2269 159.392 39.6869 158.102 36.8869 155.762C32.6169 152.182 30.6469 146.612 31.5569 141.242C26.0569 141.202 20.9369 138.232 18.1869 133.472C15.4069 128.652 15.4569 122.752 18.1369 118.022C13.0369 116.122 9.20695 111.632 8.23695 106.142C7.26695 100.652 9.32695 95.1316 13.4669 91.6016C9.33695 88.0716 7.27695 82.5416 8.23695 77.0516C9.20695 71.5616 13.0369 67.0716 18.1369 65.1716C15.4569 60.4416 15.4069 54.5416 18.1869 49.7216C20.9369 44.9616 26.0469 41.9916 31.5569 41.9516C30.6469 36.5816 32.6169 31.0216 36.8869 27.4416C39.6769 25.1016 43.2269 23.8116 46.8669 23.8116C48.6569 23.8116 50.4269 24.1216 52.0969 24.7116C53.0869 19.3616 56.837 14.8016 62.077 12.9016C63.797 12.2716 65.5869 11.9616 67.3969 11.9616C71.0569 11.9616 74.5469 13.2316 77.3069 15.5216C80.0669 10.8416 85.1569 7.85156 90.7169 7.85156C96.4169 7.85156 101.537 10.9216 104.257 15.7416C107.067 13.3116 110.707 11.9116 114.477 11.9116C116.287 11.9116 118.077 12.2316 119.797 12.8516C125.097 14.7816 128.867 19.3916 129.807 24.8016C131.467 24.2216 133.227 23.9116 135.007 23.9116C138.647 23.9116 142.187 25.2016 144.987 27.5416C149.307 31.1716 151.267 36.7816 150.297 42.1916C155.787 42.2416 160.877 45.2116 163.627 49.9616C166.377 54.7216 166.407 60.4116 163.857 65.1016C168.937 67.0116 172.767 71.5016 173.727 76.9816C174.707 82.5416 172.607 88.1016 168.387 91.6216C172.597 95.1416 174.697 100.702 173.717 106.252C172.737 111.812 168.857 116.322 163.687 118.182C166.437 122.932 166.517 128.872 163.697 133.752C160.927 138.542 155.767 141.522 150.217 141.522C150.207 141.522 150.197 141.522 150.187 141.522C151.157 146.932 149.197 152.542 144.877 156.172C142.077 158.522 138.537 159.812 134.887 159.812C132.957 159.812 131.057 159.462 129.287 158.772C128.217 163.992 124.487 168.432 119.357 170.302C117.637 170.932 115.847 171.242 114.037 171.242C110.377 171.242 106.887 169.972 104.127 167.682C101.377 172.362 96.2869 175.352 90.7169 175.352Z" stroke="#55523A" stroke-miterlimit="10"/>
<path d="M43 108H138.96" stroke="#B9BD80" stroke-miterlimit="10"/>
<path d="M120.734 44.7389C119.11 41.2082 114.689 43.1732 111.884 46.3203C110.244 48.1601 108.809 50.3834 108.16 51.4403C102.098 54.5405 95.3476 55.9888 88.5176 56.0358C91.4255 55.1903 94.1115 53.4915 96.2509 51.3699C97.3364 51.1585 99.9511 50.6105 101.322 49.8981C103.081 48.9899 106.219 45.5844 104.515 43.408C102.59 40.9498 99.4995 43.2749 97.8989 46.242C97.067 47.7765 96.4173 49.5145 96.0607 50.5479C93.0973 53.6167 88.9692 55.8557 84.6747 55.9027C84.6589 55.9027 84.643 55.9105 84.6272 55.9105C82.5592 55.7696 80.4911 55.5034 78.439 55.1198C78.2013 55.0259 77.9715 54.932 77.7338 54.838C77.5912 54.7832 77.4565 54.8223 77.3614 54.8928C75.8163 54.5718 74.2871 54.1882 72.7737 53.7342C75.3964 53.9299 78.0983 53.4836 80.2614 52.1058C81.4657 51.9414 83.8507 51.5499 85.1739 50.9628C86.9804 50.1564 90.3162 46.9388 88.7474 44.6685C86.9725 42.1006 83.7477 44.2457 81.9728 47.111C80.9745 48.7238 80.1663 50.587 79.778 51.5499C76.6404 53.5071 72.3458 53.3662 68.915 52.2467C68.7803 52.1997 68.6773 52.2389 68.606 52.3172C65.7932 51.229 63.0754 49.9294 60.5162 48.4263C60.1121 48.1914 59.7793 48.8334 60.1834 49.0682C65.6822 52.2937 71.8784 54.611 78.2647 55.8088C82.5354 57.5154 86.6793 59.8327 90.2924 62.7294C90.5856 63.7393 91.1878 65.6338 91.996 67.3092C93.4697 70.3389 96.4489 72.7971 98.4853 70.425C100.284 68.3269 97.2968 64.7883 95.5774 63.8097C94.3017 63.0738 91.8771 62.4397 90.7282 62.1579C87.8124 59.8249 84.54 57.8521 81.1409 56.2785C84.2072 56.6934 87.3053 56.8422 90.3717 56.7091C90.3954 56.7247 90.4034 56.7404 90.4271 56.7482C93.7946 58.1652 97.4077 59.0968 101.068 59.5744C102.13 60.506 104.238 62.2675 105.735 62.9721C107.803 63.9507 113.175 64.4439 114.031 61.3828C114.998 57.9147 110.672 56.7091 106.773 57.3041C104.333 57.672 101.797 58.494 100.823 58.8307C97.8197 58.4079 94.8484 57.672 92.0435 56.6151C97.7801 56.1689 103.382 54.7127 108.5 52.0901C109.927 52.1371 113.159 52.1919 114.99 51.7222C117.391 51.1037 122.176 47.8469 120.734 44.7389Z" fill="#55523A"/>
<path d="M81.6658 64.6692C81.6658 63.9368 81.0688 63.3477 80.3443 63.3477C79.795 63.3477 79.3173 63.682 79.1183 64.1676C78.9193 63.69 78.4496 63.3477 77.8923 63.3477C77.1599 63.3477 76.5708 63.9447 76.5708 64.6692C76.5708 65.0593 76.738 65.4016 77.0087 65.6484L79.1183 67.3759L81.2678 65.6165C81.5066 65.3777 81.6658 65.0433 81.6658 64.6692Z" fill="#B9BD80"/>
<path d="M59.4944 57.4513C59.4944 56.2333 58.5072 55.2461 57.2892 55.2461C56.3657 55.2461 55.5855 55.8113 55.2512 56.6074C54.9168 55.8113 54.1287 55.2461 53.2131 55.2461C51.9951 55.2461 51 56.2333 51 57.4513C51 58.0961 51.2866 58.6773 51.7244 59.0833H51.7165L55.2432 61.9652L58.8256 59.0355C59.2396 58.6375 59.4944 58.0722 59.4944 57.4513Z" fill="#B9BD80"/>
<path d="M72.1605 40.0402C72.1605 39.3078 71.5634 38.7188 70.8389 38.7188C70.2896 38.7188 69.812 39.0531 69.6129 39.5387C69.4139 39.0611 68.9442 38.7188 68.3869 38.7188C67.6545 38.7188 67.0654 39.3157 67.0654 40.0402C67.0654 40.4303 67.2326 40.7727 67.5033 41.0195L69.6129 42.747L71.7624 40.9875C72.0012 40.7487 72.1605 40.4143 72.1605 40.0402Z" fill="#B9BD80"/>
<path d="M101.226 34.2052C101.226 32.9872 100.239 32 99.0206 32C98.0971 32 97.317 32.5652 96.9826 33.3613C96.6482 32.5652 95.8601 32 94.9446 32C93.7266 32 92.7314 32.9872 92.7314 34.2052C92.7314 34.85 93.018 35.4312 93.4559 35.8372H93.4479L96.9746 38.7191L100.557 35.7894C100.971 35.3834 101.226 34.8261 101.226 34.2052Z" fill="#B9BD80"/>
<path d="M131.334 57.0754C131.334 56.343 130.737 55.7539 130.012 55.7539C129.463 55.7539 128.985 56.0883 128.786 56.5739C128.587 56.0962 128.118 55.7539 127.56 55.7539C126.828 55.7539 126.239 56.351 126.239 57.0754C126.239 57.4655 126.406 57.8078 126.677 58.0546L128.786 59.7822L130.936 58.0228C131.183 57.784 131.334 57.4496 131.334 57.0754Z" fill="#B9BD80"/>
<path d="M91.3636 147.196C91.3636 147.196 88.9936 143.606 86.5136 145.606C84.0836 147.556 88.6736 155.026 90.7536 155.516C92.8336 156.006 96.3836 150.626 96.8736 147.926C97.3536 145.236 93.7236 143.406 91.3636 147.196Z" fill="#B9BD80"/>
<path d="M74.5538 148.294C74.5538 148.294 73.0338 145.994 71.4438 147.274C69.8838 148.524 72.8338 153.324 74.1638 153.634C75.4938 153.944 77.7738 150.494 78.0938 148.764C78.3938 147.044 76.0638 145.864 74.5538 148.294Z" fill="#B9BD80"/>
<path d="M107.414 148.294C107.414 148.294 105.894 145.994 104.304 147.274C102.744 148.524 105.694 153.324 107.024 153.634C108.354 153.944 110.634 150.494 110.954 148.764C111.264 147.044 108.934 145.864 107.414 148.294Z" fill="#B9BD80"/>
<path d="M36.65 87.54V89.75H32.3V102H29.61V89.75H25.24V87.54H36.65ZM51.4433 94.77C51.4433 95.83 51.2666 96.8133 50.9133 97.72C50.5599 98.62 50.0633 99.4 49.4233 100.06C48.7833 100.72 48.0133 101.237 47.1133 101.61C46.2133 101.977 45.2166 102.16 44.1233 102.16C43.0299 102.16 42.0299 101.977 41.1233 101.61C40.2233 101.237 39.4499 100.72 38.8033 100.06C38.1633 99.4 37.6666 98.62 37.3133 97.72C36.9599 96.8133 36.7833 95.83 36.7833 94.77C36.7833 93.71 36.9599 92.73 37.3133 91.83C37.6666 90.9233 38.1633 90.14 38.8033 89.48C39.4499 88.82 40.2233 88.3067 41.1233 87.94C42.0299 87.5667 43.0299 87.38 44.1233 87.38C45.2166 87.38 46.2133 87.5667 47.1133 87.94C48.0133 88.3133 48.7833 88.83 49.4233 89.49C50.0633 90.1433 50.5599 90.9233 50.9133 91.83C51.2666 92.73 51.4433 93.71 51.4433 94.77ZM48.6833 94.77C48.6833 93.9767 48.5766 93.2667 48.3633 92.64C48.1566 92.0067 47.8566 91.47 47.4633 91.03C47.0699 90.59 46.5899 90.2533 46.0233 90.02C45.4633 89.7867 44.8299 89.67 44.1233 89.67C43.4166 89.67 42.7799 89.7867 42.2133 90.02C41.6466 90.2533 41.1633 90.59 40.7633 91.03C40.3699 91.47 40.0666 92.0067 39.8533 92.64C39.6399 93.2667 39.5333 93.9767 39.5333 94.77C39.5333 95.5633 39.6399 96.2767 39.8533 96.91C40.0666 97.5367 40.3699 98.07 40.7633 98.51C41.1633 98.9433 41.6466 99.2767 42.2133 99.51C42.7799 99.7433 43.4166 99.86 44.1233 99.86C44.8299 99.86 45.4633 99.7433 46.0233 99.51C46.5899 99.2767 47.0699 98.9433 47.4633 98.51C47.8566 98.07 48.1566 97.5367 48.3633 96.91C48.5766 96.2767 48.6833 95.5633 48.6833 94.77ZM56.3494 96.91V102H53.6594V87.54H58.3694C59.336 87.54 60.1727 87.6533 60.8794 87.88C61.586 88.1067 62.1694 88.4233 62.6294 88.83C63.0894 89.2367 63.4294 89.7233 63.6494 90.29C63.8694 90.8567 63.9794 91.4767 63.9794 92.15C63.9794 92.85 63.8627 93.4933 63.6294 94.08C63.396 94.66 63.046 95.16 62.5794 95.58C62.1127 96 61.5294 96.3267 60.8294 96.56C60.1294 96.7933 59.3094 96.91 58.3694 96.91H56.3494ZM56.3494 94.81H58.3694C58.8627 94.81 59.2927 94.75 59.6594 94.63C60.026 94.5033 60.3294 94.3267 60.5694 94.1C60.8094 93.8667 60.9894 93.5867 61.1094 93.26C61.2294 92.9267 61.2894 92.5567 61.2894 92.15C61.2894 91.7633 61.2294 91.4133 61.1094 91.1C60.9894 90.7867 60.8094 90.52 60.5694 90.3C60.3294 90.08 60.026 89.9133 59.6594 89.8C59.2927 89.68 58.8627 89.62 58.3694 89.62H56.3494V94.81ZM71.3466 87.54C71.4666 87.54 71.5666 87.5467 71.6466 87.56C71.7266 87.5667 71.7966 87.5867 71.8566 87.62C71.9232 87.6467 71.9866 87.69 72.0466 87.75C72.1066 87.8033 72.1732 87.8767 72.2466 87.97L79.8366 97.64C79.8099 97.4067 79.7899 97.18 79.7766 96.96C79.7699 96.7333 79.7666 96.5233 79.7666 96.33V87.54H82.1366V102H80.7466C80.5332 102 80.3566 101.967 80.2166 101.9C80.0766 101.833 79.9399 101.713 79.8066 101.54L72.2466 91.91C72.2666 92.1233 72.2799 92.3367 72.2866 92.55C72.2999 92.7567 72.3066 92.9467 72.3066 93.12V102H69.9366V87.54H71.3466ZM97.7638 102H95.6838C95.4504 102 95.2571 101.943 95.1038 101.83C94.9571 101.71 94.8504 101.563 94.7838 101.39L93.7038 98.44H87.7138L86.6338 101.39C86.5804 101.543 86.4738 101.683 86.3138 101.81C86.1604 101.937 85.9704 102 85.7438 102H83.6538L89.3338 87.54H92.0838L97.7638 102ZM88.4038 96.54H93.0138L91.2538 91.73C91.1738 91.5167 91.0838 91.2667 90.9838 90.98C90.8904 90.6867 90.7971 90.37 90.7038 90.03C90.6104 90.37 90.5171 90.6867 90.4238 90.98C90.3371 91.2733 90.2504 91.53 90.1638 91.75L88.4038 96.54ZM107.978 87.54V89.75H103.628V102H100.938V89.75H96.5681V87.54H107.978ZM115.503 99.83C116.023 99.83 116.486 99.7433 116.893 99.57C117.306 99.3967 117.653 99.1533 117.933 98.84C118.219 98.5267 118.436 98.1467 118.583 97.7C118.736 97.2533 118.813 96.7533 118.813 96.2V87.54H121.503V96.2C121.503 97.06 121.363 97.8567 121.083 98.59C120.809 99.3167 120.413 99.9467 119.893 100.48C119.373 101.007 118.743 101.42 118.003 101.72C117.263 102.013 116.429 102.16 115.503 102.16C114.576 102.16 113.743 102.013 113.003 101.72C112.263 101.42 111.633 101.007 111.113 100.48C110.599 99.9467 110.203 99.3167 109.923 98.59C109.649 97.8567 109.513 97.06 109.513 96.2V87.54H112.203V96.19C112.203 96.7433 112.276 97.2433 112.423 97.69C112.576 98.1367 112.793 98.52 113.073 98.84C113.353 99.1533 113.696 99.3967 114.103 99.57C114.516 99.7433 114.983 99.83 115.503 99.83ZM127.013 96.35V102H124.323V87.54H128.733C129.72 87.54 130.563 87.6433 131.263 87.85C131.97 88.05 132.547 88.3333 132.993 88.7C133.447 89.0667 133.777 89.5067 133.983 90.02C134.197 90.5267 134.303 91.0867 134.303 91.7C134.303 92.1867 134.23 92.6467 134.083 93.08C133.943 93.5133 133.737 93.9067 133.463 94.26C133.197 94.6133 132.863 94.9233 132.463 95.19C132.07 95.4567 131.62 95.67 131.113 95.83C131.453 96.0233 131.747 96.3 131.993 96.66L135.613 102H133.193C132.96 102 132.76 101.953 132.593 101.86C132.433 101.767 132.297 101.633 132.183 101.46L129.143 96.83C129.03 96.6567 128.903 96.5333 128.763 96.46C128.63 96.3867 128.43 96.35 128.163 96.35H127.013ZM127.013 94.42H128.693C129.2 94.42 129.64 94.3567 130.013 94.23C130.393 94.1033 130.703 93.93 130.943 93.71C131.19 93.4833 131.373 93.2167 131.493 92.91C131.613 92.6033 131.673 92.2667 131.673 91.9C131.673 91.1667 131.43 90.6033 130.943 90.21C130.463 89.8167 129.727 89.62 128.733 89.62H127.013V94.42ZM150.049 102H147.969C147.736 102 147.542 101.943 147.389 101.83C147.242 101.71 147.136 101.563 147.069 101.39L145.989 98.44H139.999L138.919 101.39C138.866 101.543 138.759 101.683 138.599 101.81C138.446 101.937 138.256 102 138.029 102H135.939L141.619 87.54H144.369L150.049 102ZM140.689 96.54H145.299L143.539 91.73C143.459 91.5167 143.369 91.2667 143.269 90.98C143.176 90.6867 143.082 90.37 142.989 90.03C142.896 90.37 142.802 90.6867 142.709 90.98C142.622 91.2733 142.536 91.53 142.449 91.75L140.689 96.54ZM154.228 99.78H160.018V102H151.538V87.54H154.228V99.78Z" fill="#55523A"/>
<path d="M41.448 124.746C41.412 124.806 41.374 124.852 41.334 124.884C41.294 124.912 41.242 124.926 41.178 124.926C41.11 124.926 41.03 124.892 40.938 124.824C40.85 124.756 40.736 124.682 40.596 124.602C40.46 124.518 40.294 124.442 40.098 124.374C39.906 124.306 39.672 124.272 39.396 124.272C39.136 124.272 38.906 124.308 38.706 124.38C38.506 124.448 38.338 124.542 38.202 124.662C38.07 124.782 37.97 124.924 37.902 125.088C37.834 125.248 37.8 125.422 37.8 125.61C37.8 125.85 37.858 126.05 37.974 126.21C38.094 126.366 38.25 126.5 38.442 126.612C38.638 126.724 38.858 126.822 39.102 126.906C39.35 126.986 39.602 127.07 39.858 127.158C40.118 127.246 40.37 127.346 40.614 127.458C40.862 127.566 41.082 127.704 41.274 127.872C41.47 128.04 41.626 128.246 41.742 128.49C41.862 128.734 41.922 129.034 41.922 129.39C41.922 129.766 41.858 130.12 41.73 130.452C41.602 130.78 41.414 131.066 41.166 131.31C40.922 131.554 40.62 131.746 40.26 131.886C39.904 132.026 39.498 132.096 39.042 132.096C38.486 132.096 37.978 131.996 37.518 131.796C37.062 131.592 36.672 131.318 36.348 130.974L36.684 130.422C36.716 130.378 36.754 130.342 36.798 130.314C36.846 130.282 36.898 130.266 36.954 130.266C37.038 130.266 37.134 130.312 37.242 130.404C37.35 130.492 37.484 130.59 37.644 130.698C37.808 130.806 38.004 130.906 38.232 130.998C38.464 131.086 38.746 131.13 39.078 131.13C39.354 131.13 39.6 131.092 39.816 131.016C40.032 130.94 40.214 130.834 40.362 130.698C40.514 130.558 40.63 130.392 40.71 130.2C40.79 130.008 40.83 129.794 40.83 129.558C40.83 129.298 40.77 129.086 40.65 128.922C40.534 128.754 40.38 128.614 40.188 128.502C39.996 128.39 39.776 128.296 39.528 128.22C39.284 128.14 39.032 128.06 38.772 127.98C38.516 127.896 38.264 127.8 38.016 127.692C37.772 127.584 37.554 127.444 37.362 127.272C37.17 127.1 37.014 126.886 36.894 126.63C36.778 126.37 36.72 126.05 36.72 125.67C36.72 125.366 36.778 125.072 36.894 124.788C37.014 124.504 37.186 124.252 37.41 124.032C37.634 123.812 37.91 123.636 38.238 123.504C38.57 123.372 38.95 123.306 39.378 123.306C39.858 123.306 40.296 123.382 40.692 123.534C41.088 123.686 41.434 123.906 41.73 124.194L41.448 124.746ZM51.3933 127.704C51.3933 128.348 51.2913 128.94 51.0873 129.48C50.8833 130.016 50.5953 130.478 50.2233 130.866C49.8513 131.254 49.4033 131.556 48.8793 131.772C48.3593 131.984 47.7833 132.09 47.1513 132.09C46.5193 132.09 45.9433 131.984 45.4233 131.772C44.9033 131.556 44.4573 131.254 44.0853 130.866C43.7133 130.478 43.4253 130.016 43.2213 129.48C43.0173 128.94 42.9153 128.348 42.9153 127.704C42.9153 127.06 43.0173 126.47 43.2213 125.934C43.4253 125.394 43.7133 124.93 44.0853 124.542C44.4573 124.15 44.9033 123.846 45.4233 123.63C45.9433 123.414 46.5193 123.306 47.1513 123.306C47.7833 123.306 48.3593 123.414 48.8793 123.63C49.4033 123.846 49.8513 124.15 50.2233 124.542C50.5953 124.93 50.8833 125.394 51.0873 125.934C51.2913 126.47 51.3933 127.06 51.3933 127.704ZM50.1993 127.704C50.1993 127.176 50.1273 126.702 49.9833 126.282C49.8393 125.862 49.6353 125.508 49.3713 125.22C49.1073 124.928 48.7873 124.704 48.4113 124.548C48.0353 124.392 47.6153 124.314 47.1513 124.314C46.6913 124.314 46.2733 124.392 45.8973 124.548C45.5213 124.704 45.1993 124.928 44.9313 125.22C44.6673 125.508 44.4633 125.862 44.3193 126.282C44.1753 126.702 44.1033 127.176 44.1033 127.704C44.1033 128.232 44.1753 128.706 44.3193 129.126C44.4633 129.542 44.6673 129.896 44.9313 130.188C45.1993 130.476 45.5213 130.698 45.8973 130.854C46.2733 131.006 46.6913 131.082 47.1513 131.082C47.6153 131.082 48.0353 131.006 48.4113 130.854C48.7873 130.698 49.1073 130.476 49.3713 130.188C49.6353 129.896 49.8393 129.542 49.9833 129.126C50.1273 128.706 50.1993 128.232 50.1993 127.704ZM59.7977 132H58.8977C58.7937 132 58.7097 131.974 58.6457 131.922C58.5817 131.87 58.5337 131.804 58.5017 131.724L57.6977 129.648H53.8397L53.0357 131.724C53.0077 131.796 52.9597 131.86 52.8917 131.916C52.8237 131.972 52.7397 132 52.6397 132H51.7397L55.1777 123.402H56.3597L59.7977 132ZM54.1637 128.808H57.3737L56.0237 125.31C55.9357 125.094 55.8497 124.824 55.7657 124.5C55.7217 124.664 55.6777 124.816 55.6337 124.956C55.5937 125.092 55.5537 125.212 55.5137 125.316L54.1637 128.808ZM62.1579 128.784V132H60.9999V123.402H63.5379C64.0819 123.402 64.5539 123.466 64.9539 123.594C65.3579 123.718 65.6919 123.896 65.9559 124.128C66.2199 124.36 66.4159 124.64 66.5439 124.968C66.6759 125.296 66.7419 125.662 66.7419 126.066C66.7419 126.466 66.6719 126.832 66.5319 127.164C66.3919 127.496 66.1859 127.782 65.9139 128.022C65.6459 128.262 65.3119 128.45 64.9119 128.586C64.5119 128.718 64.0539 128.784 63.5379 128.784H62.1579ZM62.1579 127.86H63.5379C63.8699 127.86 64.1619 127.816 64.4139 127.728C64.6699 127.64 64.8839 127.518 65.0559 127.362C65.2279 127.202 65.3579 127.012 65.4459 126.792C65.5339 126.572 65.5779 126.33 65.5779 126.066C65.5779 125.518 65.4079 125.09 65.0679 124.782C64.7319 124.474 64.2219 124.32 63.5379 124.32H62.1579V127.86ZM72.6199 124.746C72.5839 124.806 72.5459 124.852 72.5059 124.884C72.4659 124.912 72.4139 124.926 72.3499 124.926C72.2819 124.926 72.2019 124.892 72.1099 124.824C72.0219 124.756 71.9079 124.682 71.7679 124.602C71.6319 124.518 71.4659 124.442 71.2699 124.374C71.0779 124.306 70.8439 124.272 70.5679 124.272C70.3079 124.272 70.0779 124.308 69.8779 124.38C69.6779 124.448 69.5099 124.542 69.3739 124.662C69.2419 124.782 69.1419 124.924 69.0739 125.088C69.0059 125.248 68.9719 125.422 68.9719 125.61C68.9719 125.85 69.0299 126.05 69.1459 126.21C69.2659 126.366 69.4219 126.5 69.6139 126.612C69.8099 126.724 70.0299 126.822 70.2739 126.906C70.5219 126.986 70.7739 127.07 71.0299 127.158C71.2899 127.246 71.5419 127.346 71.7859 127.458C72.0339 127.566 72.2539 127.704 72.4459 127.872C72.6419 128.04 72.7979 128.246 72.9139 128.49C73.0339 128.734 73.0939 129.034 73.0939 129.39C73.0939 129.766 73.0299 130.12 72.9019 130.452C72.7739 130.78 72.5859 131.066 72.3379 131.31C72.0939 131.554 71.7919 131.746 71.4319 131.886C71.0759 132.026 70.6699 132.096 70.2139 132.096C69.6579 132.096 69.1499 131.996 68.6899 131.796C68.2339 131.592 67.8439 131.318 67.5199 130.974L67.8559 130.422C67.8879 130.378 67.9259 130.342 67.9699 130.314C68.0179 130.282 68.0699 130.266 68.1259 130.266C68.2099 130.266 68.3059 130.312 68.4139 130.404C68.5219 130.492 68.6559 130.59 68.8159 130.698C68.9799 130.806 69.1759 130.906 69.4039 130.998C69.6359 131.086 69.9179 131.13 70.2499 131.13C70.5259 131.13 70.7719 131.092 70.9879 131.016C71.2039 130.94 71.3859 130.834 71.5339 130.698C71.6859 130.558 71.8019 130.392 71.8819 130.2C71.9619 130.008 72.0019 129.794 72.0019 129.558C72.0019 129.298 71.9419 129.086 71.8219 128.922C71.7059 128.754 71.5519 128.614 71.3599 128.502C71.1679 128.39 70.9479 128.296 70.6999 128.22C70.4559 128.14 70.2039 128.06 69.9439 127.98C69.6879 127.896 69.4359 127.8 69.1879 127.692C68.9439 127.584 68.7259 127.444 68.5339 127.272C68.3419 127.1 68.1859 126.886 68.0659 126.63C67.9499 126.37 67.8919 126.05 67.8919 125.67C67.8919 125.366 67.9499 125.072 68.0659 124.788C68.1859 124.504 68.3579 124.252 68.5819 124.032C68.8059 123.812 69.0819 123.636 69.4099 123.504C69.7419 123.372 70.1219 123.306 70.5499 123.306C71.0299 123.306 71.4679 123.382 71.8639 123.534C72.2599 123.686 72.6059 123.906 72.9019 124.194L72.6199 124.746ZM87.2058 127.704C87.2058 128.348 87.1038 128.94 86.8998 129.48C86.6958 130.016 86.4078 130.478 86.0358 130.866C85.6638 131.254 85.2158 131.556 84.6918 131.772C84.1718 131.984 83.5958 132.09 82.9638 132.09C82.3318 132.09 81.7558 131.984 81.2358 131.772C80.7158 131.556 80.2698 131.254 79.8978 130.866C79.5258 130.478 79.2378 130.016 79.0338 129.48C78.8298 128.94 78.7278 128.348 78.7278 127.704C78.7278 127.06 78.8298 126.47 79.0338 125.934C79.2378 125.394 79.5258 124.93 79.8978 124.542C80.2698 124.15 80.7158 123.846 81.2358 123.63C81.7558 123.414 82.3318 123.306 82.9638 123.306C83.5958 123.306 84.1718 123.414 84.6918 123.63C85.2158 123.846 85.6638 124.15 86.0358 124.542C86.4078 124.93 86.6958 125.394 86.8998 125.934C87.1038 126.47 87.2058 127.06 87.2058 127.704ZM86.0118 127.704C86.0118 127.176 85.9398 126.702 85.7958 126.282C85.6518 125.862 85.4478 125.508 85.1838 125.22C84.9198 124.928 84.5998 124.704 84.2238 124.548C83.8478 124.392 83.4278 124.314 82.9638 124.314C82.5038 124.314 82.0858 124.392 81.7098 124.548C81.3338 124.704 81.0118 124.928 80.7438 125.22C80.4798 125.508 80.2758 125.862 80.1318 126.282C79.9878 126.702 79.9158 127.176 79.9158 127.704C79.9158 128.232 79.9878 128.706 80.1318 129.126C80.2758 129.542 80.4798 129.896 80.7438 130.188C81.0118 130.476 81.3338 130.698 81.7098 130.854C82.0858 131.006 82.5038 131.082 82.9638 131.082C83.4278 131.082 83.8478 131.006 84.2238 130.854C84.5998 130.698 84.9198 130.476 85.1838 130.188C85.4478 129.896 85.6518 129.542 85.7958 129.126C85.9398 128.706 86.0118 128.232 86.0118 127.704ZM94.092 123.402V124.35H89.964V127.356H93.492V128.304H89.964V132H88.794V123.402H94.092ZM103.767 123.402V124.38H100.989V132H99.8252V124.38H97.0352V123.402H103.767ZM111.961 132H110.791V128.088H106.159V132H104.989V123.402H106.159V127.236H110.791V123.402H111.961V132ZM119.358 123.402V124.35H115.23V127.206H118.572V128.118H115.23V131.052H119.358V132H114.06V123.402H119.358ZM125.915 123.306C126.279 123.306 126.619 123.36 126.935 123.468C127.251 123.576 127.523 123.734 127.751 123.942C127.983 124.146 128.165 124.396 128.297 124.692C128.429 124.988 128.495 125.324 128.495 125.7C128.495 126.02 128.447 126.316 128.351 126.588C128.255 126.86 128.125 127.122 127.961 127.374C127.797 127.622 127.607 127.864 127.391 128.1C127.179 128.332 126.953 128.57 126.713 128.814L124.451 131.13C124.611 131.086 124.773 131.052 124.937 131.028C125.101 131 125.259 130.986 125.411 130.986H128.291C128.407 130.986 128.499 131.02 128.567 131.088C128.635 131.156 128.669 131.244 128.669 131.352V132H122.933V131.634C122.933 131.558 122.947 131.48 122.975 131.4C123.007 131.32 123.057 131.246 123.125 131.178L125.879 128.412C126.107 128.18 126.315 127.958 126.503 127.746C126.691 127.53 126.851 127.314 126.983 127.098C127.119 126.882 127.223 126.664 127.295 126.444C127.367 126.22 127.403 125.982 127.403 125.73C127.403 125.478 127.363 125.258 127.283 125.07C127.203 124.878 127.093 124.72 126.953 124.596C126.813 124.472 126.649 124.38 126.461 124.32C126.273 124.256 126.071 124.224 125.855 124.224C125.639 124.224 125.439 124.256 125.255 124.32C125.071 124.384 124.907 124.474 124.763 124.59C124.623 124.702 124.503 124.836 124.403 124.992C124.307 125.148 124.239 125.32 124.199 125.508C124.167 125.624 124.119 125.708 124.055 125.76C123.991 125.812 123.907 125.838 123.803 125.838C123.783 125.838 123.761 125.838 123.737 125.838C123.717 125.834 123.693 125.83 123.665 125.826L123.107 125.73C123.163 125.338 123.271 124.992 123.431 124.692C123.591 124.388 123.793 124.134 124.037 123.93C124.285 123.726 124.567 123.572 124.883 123.468C125.203 123.36 125.547 123.306 125.915 123.306ZM135.87 127.704C135.87 128.456 135.788 129.108 135.624 129.66C135.464 130.208 135.244 130.662 134.964 131.022C134.684 131.382 134.352 131.65 133.968 131.826C133.588 132.002 133.18 132.09 132.744 132.09C132.304 132.09 131.894 132.002 131.514 131.826C131.138 131.65 130.81 131.382 130.53 131.022C130.25 130.662 130.03 130.208 129.87 129.66C129.71 129.108 129.63 128.456 129.63 127.704C129.63 126.952 129.71 126.3 129.87 125.748C130.03 125.196 130.25 124.74 130.53 124.38C130.81 124.016 131.138 123.746 131.514 123.57C131.894 123.394 132.304 123.306 132.744 123.306C133.18 123.306 133.588 123.394 133.968 123.57C134.352 123.746 134.684 124.016 134.964 124.38C135.244 124.74 135.464 125.196 135.624 125.748C135.788 126.3 135.87 126.952 135.87 127.704ZM134.76 127.704C134.76 127.048 134.704 126.498 134.592 126.054C134.484 125.606 134.336 125.246 134.148 124.974C133.964 124.702 133.75 124.508 133.506 124.392C133.262 124.272 133.008 124.212 132.744 124.212C132.48 124.212 132.226 124.272 131.982 124.392C131.738 124.508 131.524 124.702 131.34 124.974C131.156 125.246 131.008 125.606 130.896 126.054C130.788 126.498 130.734 127.048 130.734 127.704C130.734 128.36 130.788 128.91 130.896 129.354C131.008 129.798 131.156 130.156 131.34 130.428C131.524 130.7 131.738 130.896 131.982 131.016C132.226 131.132 132.48 131.19 132.744 131.19C133.008 131.19 133.262 131.132 133.506 131.016C133.75 130.896 133.964 130.7 134.148 130.428C134.336 130.156 134.484 129.798 134.592 129.354C134.704 128.91 134.76 128.36 134.76 127.704ZM137.952 131.184H139.8V125.322C139.8 125.146 139.806 124.968 139.818 124.788L138.282 126.102C138.242 126.134 138.202 126.158 138.162 126.174C138.122 126.186 138.084 126.192 138.048 126.192C137.988 126.192 137.934 126.18 137.886 126.156C137.838 126.128 137.802 126.096 137.778 126.06L137.442 125.598L139.998 123.384H140.868V131.184H142.56V132H137.952V131.184ZM149.695 123.402V123.882C149.695 124.018 149.679 124.13 149.647 124.218C149.619 124.306 149.589 124.38 149.557 124.44L145.999 131.622C145.947 131.726 145.875 131.816 145.783 131.892C145.691 131.964 145.567 132 145.411 132H144.649L148.261 124.908C148.313 124.808 148.365 124.716 148.417 124.632C148.473 124.548 148.535 124.468 148.603 124.392H144.115C144.047 124.392 143.985 124.366 143.929 124.314C143.877 124.258 143.851 124.196 143.851 124.128V123.402H149.695Z" fill="#55523A"/>
</svg>
